<?xml version="1.0" encoding="UTF-8"?> <svg xmlns="http://www.w3.org/2000/svg" width="204" height="204" viewBox="0 0 204 204" fill="none"> <circle cx="102" cy="102" r="101" stroke="white" stroke-opacity="0.6" stroke-width="2"></circle> <circle cx="102" cy="102" r="86" fill="#FFB800"></circle> <circle cx="102" cy="102" r="73.5" stroke="white" stroke-opacity="0.38"></circle> <path d="M70.7603 55.908L70.6943 56.172L70.5843 56.48L70.4743 56.788L70.4083 57.096L70.2983 57.382L70.2543 57.712L70.1663 57.998L70.0123 58.284L69.9683 58.548L69.7483 59.142L69.6823 59.428L69.6163 59.758L69.4623 60.022L69.3743 60.33L69.3303 60.638L69.1983 61.232L69.0443 61.562L69.0223 61.826L68.8683 62.112L68.8023 62.398L68.7143 62.75L68.6483 63.014L68.5603 63.278L68.4063 63.608L68.3183 63.872L68.2083 64.202L68.1863 64.51L68.0543 64.774L67.9443 65.104L67.9003 65.412L67.7463 65.676L67.7243 66.006L67.5923 66.292L67.5703 66.6L67.4603 66.886L67.2843 67.128L67.2403 67.458L67.1963 67.744L67.0643 68.03L66.9323 68.316L66.8443 68.646L66.8003 68.954L66.6463 69.24L66.6023 69.504L66.5363 69.812L66.3823 70.12L66.3383 70.406L66.2503 70.736L65.8323 70.978H64.9743L64.7763 71.022L64.4463 70.978L64.2483 70.736L64.3583 70.428L64.4023 70.164L64.4683 69.834L64.6223 69.526L64.6443 69.262L64.8203 68.932V68.69L64.9303 68.382L64.9963 68.074L65.1063 67.766L65.2823 67.502L65.3483 67.172L65.4143 66.886L65.5023 66.6L65.6123 66.292L65.7443 65.72L65.8983 65.456V65.126L66.0743 64.884L66.1623 64.554L66.2503 64.29L66.3603 63.96L66.3823 63.696L66.4703 63.366L66.6023 63.102L66.6683 62.816L66.7343 62.53L66.8223 62.222L66.8883 61.892L67.0203 61.65L67.1083 61.32L67.2403 61.034L67.3283 60.77L67.4383 60.462L67.5043 60.154L67.5483 59.868L67.6803 59.604L67.7023 59.274L67.8563 58.966L67.9003 58.724L68.0103 58.416L68.0983 58.108L68.1643 57.8L67.9223 57.536L67.6583 57.492H67.3503L67.0863 57.536L66.7343 57.514H66.3823L66.0963 57.492L65.8103 57.536H65.4583L65.1723 57.514H64.8643L64.5563 57.492L64.2483 57.536H63.9623L63.5663 57.514L63.3023 57.492L62.6863 57.536H62.3563L62.0923 57.492L61.5863 57.844L61.5423 58.086L61.4323 58.394L61.4103 58.702L61.2783 58.966L61.1903 59.296L61.0803 59.56L61.0363 59.846L60.8823 60.176L60.7943 60.44V60.77L60.7063 61.012L60.5963 61.342L60.5083 61.65L60.4203 61.914L60.2883 62.222L60.2443 62.486L60.0683 62.772L60.0243 63.124L59.8923 63.388L59.8043 63.674V63.96L59.6283 64.29L59.5623 64.554L59.5183 64.84L59.4303 65.126L59.3203 65.434L59.2543 65.742L59.1223 66.006L59.0343 66.336L58.9243 66.644L58.8803 66.908L58.8143 67.172L58.6383 67.502L58.6163 67.788L58.4623 68.096L58.3963 68.404L58.2643 68.932L58.1103 69.284L58.0663 69.57L57.9563 69.856L57.8903 70.142L57.7803 70.428L57.6703 70.692L57.3403 70.978L57.0543 71.044L56.7243 71.022L56.5263 71.044L56.2183 71.022L55.9103 71.044L55.7123 70.736L55.8223 70.406L55.8443 70.098L55.9763 69.834L56.0423 69.548L56.1303 69.24L56.2403 68.932L56.3723 68.646L56.4603 68.36L56.5483 68.074L56.6583 67.722L56.6803 67.48L56.8123 67.172L56.8563 66.886L56.9223 66.556L57.0983 66.292L57.1863 66.006L57.2743 65.676L57.3183 65.39L57.4503 65.104L57.5603 64.51L57.6923 64.202L57.7803 63.872L57.8243 63.608L57.9343 63.322L58.0883 63.036V62.75L58.1763 62.42L58.3523 62.156L58.3743 61.804L58.5503 61.562L58.6163 61.254L58.7263 60.924V60.616L58.8583 60.374L58.9683 60.044L58.9903 59.78L59.1443 59.428L59.2763 58.9L59.4083 58.548L59.5183 58.306L59.6283 57.976L59.6723 57.69L59.7163 57.36L59.8263 57.074L59.9583 56.81L60.0023 56.48L60.1123 56.172L60.2223 55.93L60.6183 55.622L60.9483 55.578L61.2563 55.6L61.5423 55.578L61.8723 55.6L62.1363 55.578H62.4443L62.7743 55.622L63.3683 55.578L63.7643 55.6H63.9843L64.3363 55.622L64.6443 55.578H65.0183L65.2823 55.622H65.5683L65.8543 55.578L66.2063 55.622H66.4703L66.8003 55.6H67.1963L67.4163 55.622L67.8123 55.6L68.0983 55.622L68.3403 55.6L68.7363 55.578L69.0223 55.622H69.3303L69.5943 55.6H69.9023L70.2983 55.622L70.5843 55.6L70.7603 55.908ZM73.1803 71.308L72.8723 71.264H72.4983L72.2563 71.176L71.9703 71.022L71.6843 70.934L71.3983 70.736L71.2003 70.538L70.9583 70.362L70.7383 70.142L70.5183 69.9L70.3423 69.658L70.2323 69.35L70.1223 69.086L70.0563 68.822L69.9463 68.492L69.8803 68.206L69.8143 67.876L69.7703 67.59L69.7923 66.952V66.666L69.8363 66.358L69.8803 66.05L69.9903 65.72L70.0123 65.412L70.0783 65.126L70.2323 64.84L70.2983 64.576L70.4303 64.29L70.5843 63.982L70.7823 63.762L70.9143 63.476L71.1123 63.234L71.2443 62.97L71.4203 62.75L71.6183 62.53L71.8603 62.266L72.1023 62.09L72.3443 61.892L72.6303 61.716L72.8943 61.54L73.1363 61.386L73.3563 61.298L73.7083 61.144L73.9723 61.034L74.2803 60.968L74.5663 60.902L74.9183 60.88L75.5123 60.902L75.8203 60.968L76.0623 61.012L76.6563 61.188L76.9643 61.32L77.4043 61.65L77.6023 61.914L77.8223 62.134L78.0203 62.332L78.1963 62.64L78.3503 62.904L78.4383 63.19L78.4823 63.454L78.6583 63.762L78.6363 64.07L78.7023 64.378L78.7463 64.642L78.6803 65.28L78.7463 65.588L78.6803 65.874L78.6363 66.16L78.5483 66.512L78.4603 66.776L78.3943 67.084L78.3723 67.348L78.1963 67.656L78.0643 67.964L77.9983 68.25L77.8443 68.47L77.6903 68.778L77.4483 69.02L77.3383 69.284L77.0743 69.504L76.9643 69.746L76.7443 69.944L76.2383 70.318L76.0183 70.516L75.7103 70.67L75.4463 70.824L75.1603 70.934L74.8963 71.088L74.6543 71.198L74.3683 71.264L74.0383 71.308L73.7743 71.33L73.1803 71.308ZM73.8843 69.548L74.2583 69.482L74.5663 69.416L74.8083 69.24L75.0723 69.064L75.2923 68.866L75.5563 68.646L75.7323 68.426L75.9303 68.206L76.0843 67.942L76.2383 67.656L76.3703 67.37L76.5463 67.04L76.5903 66.776L76.7443 66.446V66.138L76.8543 65.83V65.5L76.8323 64.928L76.8103 64.642L76.7883 64.29L76.7003 64.004L76.5903 63.784L76.4583 63.476L76.2163 63.256L76.0183 63.058L75.8203 62.86L75.5123 62.794L75.2483 62.728L74.5883 62.662L74.3243 62.75L74.0823 62.838L73.7083 63.014L73.4443 63.168L73.2023 63.366L72.9603 63.542L72.8283 63.762L72.5643 64.026L72.4103 64.312L72.2563 64.554L72.1683 64.862L71.9923 65.148L71.9043 65.434L71.7723 65.742L71.7503 66.094L71.7063 66.38L71.6623 66.71L71.7283 67.304L71.7503 67.612L71.8163 67.942L71.8823 68.228L71.9923 68.492L72.1683 68.756L72.2783 69.02L72.5643 69.196L72.7623 69.394L73.0483 69.482L73.3563 69.57L73.8843 69.548ZM86.5778 71.308L86.2698 71.242L86.0278 71.088L85.7858 70.912L85.5218 70.736L85.4118 70.45L85.3018 70.164L85.1698 69.856L85.1918 69.592L85.2358 68.932L85.2138 68.646L85.1918 68.316L85.2138 68.008L85.2578 67.744L85.2798 67.392L85.3018 67.106L85.3238 66.82L85.3458 66.49L85.3018 66.204V65.896L85.3898 65.566L85.3678 65.28V64.972L85.3898 64.642L85.4998 64.378L85.4338 64.048L85.4778 63.784L85.4998 63.476L85.5878 63.146L85.2798 63.278L85.0378 63.454L84.7518 63.586L84.5098 63.806L84.2898 63.982L84.0918 64.18L83.9158 64.4L83.6738 64.686L83.4318 64.862L83.2778 65.126L83.1018 65.346L82.9698 65.654L82.8158 65.896L82.6398 66.116L82.5078 66.402L82.2878 66.666L82.1558 66.974L82.0018 67.216L81.9358 67.502L81.8478 67.81L81.6938 68.074L81.5838 68.382L81.4298 68.624L81.4078 68.91L81.2538 69.196L81.2098 69.548L81.1438 69.812L81.0118 70.12V70.406L80.9018 70.692L80.5938 70.978L79.9778 71.044H79.6698L79.2958 71.022L79.0098 70.736L79.1198 70.428L79.2298 70.098L79.2518 69.812L79.3398 69.504L79.4278 69.174L79.4718 68.866L79.5378 68.58L79.6698 68.272L79.8018 67.986L79.9118 67.722L79.9778 67.414L80.1098 67.128L80.2858 66.864L80.3298 66.534L80.5058 66.292L80.6378 66.006L80.7918 65.742L81.0118 65.434L81.1438 65.192L81.2538 64.928L81.4298 64.664L81.6938 64.4L82.0678 63.938L82.2658 63.718L82.4858 63.454L82.6398 63.212L82.8818 63.036L83.0578 62.794L83.2998 62.596L83.6078 62.42L83.8718 62.244L84.1138 62.068L84.3778 61.87L84.6198 61.738L84.8618 61.606L85.2138 61.43L85.4998 61.342L86.0058 61.188H86.6658L87.0398 61.232L87.3478 61.496V61.804L87.2598 62.112L87.2818 62.42L87.2378 62.728L87.2818 63.036L87.2378 63.366L87.1938 63.652L87.2378 63.96L87.1718 64.29L87.1498 64.576V64.84V65.192L87.0838 65.5L87.1278 65.786L87.1058 66.094L87.0398 66.38L87.0838 66.688L86.9958 67.018L87.0178 67.304L87.0398 67.612L86.9518 67.876L87.0178 68.228V68.536V69.174L87.1938 69.482L87.7878 69.548L87.9418 69.394L88.1618 69.284L88.4478 69.086L88.6458 68.822L88.7558 68.602L88.9758 68.36L89.1518 68.118L89.3718 67.876L89.5258 67.612L89.6798 67.326L89.8118 67.084L89.9878 66.754L90.2298 66.49L90.3178 66.248L90.4938 65.962L90.6918 65.72L91.1538 65.632L91.3738 65.786L91.5278 66.27L91.3958 66.556L91.2418 66.82L90.9998 67.062L90.9338 67.348L90.7138 67.59L90.5378 67.876L90.3838 68.118L90.2298 68.382L90.0758 68.668L89.8558 68.932L89.7238 69.174L89.5918 69.416L89.3278 69.658L89.1518 69.922L88.9978 70.186L88.7558 70.384L88.5578 70.604L88.3158 70.802L88.0298 70.978L87.7438 71.176L87.5458 71.286L87.2158 71.33L86.5778 71.308ZM102.584 66.27L102.408 66.556L102.298 66.82L102.056 67.062L101.902 67.348L101.836 67.59L101.594 67.876L101.484 68.14L101.264 68.382L101.132 68.624L100.89 68.866L100.67 69.108L100.494 69.35L100.296 69.592L100.076 69.856L99.8778 70.076L99.6798 70.318L99.4378 70.516L99.1738 70.758L98.9758 70.934L98.7558 71.154L98.4698 71.308L98.2058 71.528L97.9638 71.682L97.6558 71.836L97.4138 71.968L97.0838 72.078L96.8198 72.21L96.4018 72.65L96.3798 72.892L96.2258 73.2L96.0718 73.464L96.0058 73.728L95.8958 74.036L95.7638 74.278L95.6318 74.608L95.3898 74.828L95.3238 75.114L95.1478 75.422L95.0158 75.642L94.8398 75.884L94.6418 76.17L94.3778 76.39L94.1798 76.61L93.7398 76.962L93.4758 77.138L93.1898 77.27L92.8598 77.402L92.6618 77.468L92.2878 77.512L92.0238 77.578L91.3858 77.556L91.1218 77.534L90.7918 77.468L90.5498 77.358L90.3298 77.27L90.0658 77.094L89.7798 76.874L89.6038 76.654L89.4938 76.412L89.3618 76.17L89.2518 75.84L89.2738 75.598L89.1858 74.982L89.2298 74.674L89.3838 74.388L89.5158 74.058L89.6258 73.816L89.8238 73.552L90.0438 73.354L90.2418 73.134L90.5058 72.98L90.7038 72.782L91.0338 72.672L91.2538 72.54L91.5618 72.386L91.8698 72.276L92.1338 72.21L92.5298 72.122L92.8158 72.034L93.7838 71.748L94.0698 71.704L94.3558 71.66L94.6858 71.572L95.0598 71.154L95.3238 70.538V70.208L95.4998 69.922L95.4778 69.68L95.6318 69.35L95.7198 69.108L95.6978 68.822L95.4778 69.042L95.3458 69.306L95.1038 69.526L94.8838 69.724L94.6638 69.966L94.4658 70.142L94.1798 70.34L93.9818 70.494L93.7178 70.626L93.3878 70.692L93.0578 70.758L92.7938 70.824H92.1558L91.8478 70.78L91.5618 70.692L91.3418 70.604L91.0338 70.428L90.8578 70.252L90.6158 70.01L90.4398 69.79L90.2858 69.548L90.1758 69.262L90.0658 68.954L89.9998 68.602L90.0218 68.052L90.0878 67.744L90.0658 67.436L90.1098 67.15L90.2198 66.842V66.534L90.3298 66.248L90.4178 65.94L90.4838 65.654L90.5938 65.368L90.6378 65.038L90.7698 64.752L90.8358 64.488L90.8798 64.158L91.0558 63.894L91.1218 63.608L91.2538 63.3V63.014L91.3638 62.728L91.5398 62.42L91.6278 62.134L91.6498 61.804L91.8258 61.54L92.2438 61.232L92.8158 61.188H93.5418L93.7618 61.496L93.6078 61.804L93.5198 62.09L93.4538 62.398L93.2778 62.97L93.1678 63.256L93.0358 63.498L92.9258 63.85V64.114L92.8158 64.378L92.6398 64.664L92.5958 64.972L92.5738 65.258L92.4198 65.566L92.3978 65.852L92.2658 66.16L92.2218 66.424L92.1118 66.776L92.1338 67.062L92.0678 67.37L91.9578 67.656L92.0238 68.25L92.1778 68.514L92.3098 68.8L92.5958 68.932L92.8378 69.086L93.4758 69.042L93.7398 68.976L93.9598 68.888L94.2458 68.734L94.4658 68.624L94.7298 68.382L94.9498 68.162L95.1698 67.986L95.2798 67.7L95.4778 67.48L95.6758 67.194L95.8738 66.952L96.0058 66.688L96.2038 66.424L96.3138 66.16L96.4678 65.874L96.6218 65.588L96.7758 65.324L96.8418 65.038L96.9958 64.752L97.1498 64.422L97.2158 64.136L97.3258 63.872L97.4138 63.586L97.5458 63.256L97.6778 62.97L97.7218 62.706L97.8758 62.398L98.0078 62.112L98.0958 61.826V61.518L98.5138 61.232L98.8438 61.188L99.1738 61.232H99.4378L99.8338 61.188L100.032 61.54L99.8998 61.782L99.8338 62.09L99.7458 62.398L99.5478 62.684L99.5038 62.992L99.4378 63.322L99.3498 63.63L99.0858 64.224L99.0418 64.51L98.9538 64.774L98.7998 65.082L98.7338 65.368L98.5138 65.984L98.4918 66.27L98.3378 66.556L98.3158 66.886L98.1398 67.194V67.458L97.9858 67.788L97.8978 68.096L97.7878 68.382L97.6998 68.668L97.5678 69.262L97.4578 69.57L97.3698 69.834L97.2378 70.164L97.1278 70.45L96.9958 70.868H97.2598L97.5238 70.714L97.8538 70.56L98.0298 70.34L98.2718 70.186L98.5798 69.988L98.7338 69.746L99.0418 69.504L99.2398 69.328L99.4818 69.042L99.6578 68.866L99.8118 68.58L100.054 68.338L100.186 68.118L100.362 67.832L100.538 67.59L100.78 67.348L100.978 67.018L101.066 66.798L101.286 66.512L101.374 66.248L101.572 65.962L101.682 65.676L102.1 65.632L102.43 65.83L102.584 66.27ZM92.0678 75.928L92.3538 75.818L92.7938 75.576L93.0578 75.356L93.2778 75.136L93.3878 74.938L93.5858 74.674L93.7398 74.41L93.9158 74.146L94.0038 73.86L94.2238 73.596L94.2898 73.31L94.3778 73.024L94.1798 72.87L93.9598 72.936L93.5858 72.98L93.2558 73.046L93.0358 73.134L92.7278 73.244L92.4198 73.354L92.1338 73.486L91.7598 73.574L91.5398 73.75L91.2978 73.904L91.0118 74.168L90.9018 74.388L90.7918 74.74L90.8138 75.312L90.8578 75.598L91.1438 75.84L91.4738 75.906L92.0678 75.928ZM110.236 62.398L109.906 62.53L109.664 62.706L109.4 62.882L109.136 63.014L108.894 63.19L108.696 63.366L108.41 63.542L108.124 63.74L107.926 63.916L107.728 64.07L107.464 64.334L107.222 64.51L107.068 64.73L106.804 64.95L106.65 65.192L106.408 65.434L106.254 65.654L106.1 65.918L105.968 66.16L105.88 66.446L105.748 66.732L105.616 66.996L105.506 67.282L105.484 67.59L105.528 68.206L105.616 68.536L105.726 68.756L105.88 69.02L106.144 69.24L106.342 69.416L106.65 69.526L106.936 69.592H107.53L107.882 69.504L108.124 69.482L108.476 69.35L108.696 69.24L109.004 69.108L109.51 68.844L109.708 68.624L109.972 68.448L110.236 68.228L110.412 68.03L110.588 67.788L110.874 67.546L111.05 67.326L111.27 67.106L111.446 66.842L111.622 66.622L111.732 66.38L111.908 66.072L112.15 65.852L112.326 65.566L112.744 65.522L113.008 65.764L113.074 66.248L112.876 66.512L112.766 66.754L112.59 67.062L112.392 67.326L112.26 67.546L112.128 67.81L111.864 68.052L111.754 68.338L111.49 68.558L111.336 68.822L111.094 69.064L110.896 69.262L110.654 69.482L110.478 69.724L110.192 69.966L109.972 70.12L109.774 70.318L109.51 70.516L109.246 70.692L108.938 70.824L108.674 70.956L108.432 71.066L108.102 71.176L107.772 71.264L107.464 71.308L107.222 71.352H106.54L106.034 71.22L105.638 71.154L105.396 71.044L105.176 70.912L104.934 70.78L104.626 70.604L104.472 70.406L104.252 70.164L104.032 69.944L103.944 69.68L103.834 69.394L103.746 69.108L103.724 68.822L103.658 68.47L103.636 67.92L103.658 67.568L103.68 67.304L103.768 66.996L103.856 66.71L103.988 66.402L104.142 66.16L104.296 65.874L104.384 65.654L104.626 65.368L104.824 65.126L104.934 64.884L105.176 64.642L105.396 64.422L105.638 64.224L105.858 63.982L106.034 63.762L106.232 63.564L106.54 63.366L106.694 63.168L107.046 63.014L107.288 62.86L107.53 62.618L107.134 62.574L106.848 62.552H106.606L106.232 62.508L105.902 62.442L105.572 62.398L105.264 62.332L105.022 62.288L104.736 62.156L104.296 62.398L104.274 62.684L104.076 62.926L104.032 63.234L103.878 63.52L103.746 63.85L103.658 64.136L103.504 64.378L103.328 64.686L103.218 64.972L103.042 65.28L102.976 65.544L102.778 65.83L102.668 66.072L102.492 66.38L102.096 66.424L101.722 66.27L101.59 65.808L101.81 65.522L101.942 65.28L102.118 64.972L102.25 64.686L102.36 64.444L102.47 64.18L102.58 63.894L102.734 63.586L102.866 63.3L102.888 62.97L102.976 62.684L103.152 62.42L103.174 62.09L103.46 61.54L103.746 60.924L104.186 60.726L104.494 60.814L104.802 60.858L105.044 60.968L105.396 61.012H105.682L106.012 61.056L106.276 61.122L106.606 61.144L106.914 61.122L107.134 61.166H107.486L107.816 61.21H108.124L108.762 61.166H109.4L109.708 61.144L110.192 61.452L110.28 61.738L110.346 62.002L110.236 62.398ZM113.7 71.352L113.436 71.286L113.15 71.176L112.776 71.066L112.578 70.912L112.292 70.714L112.094 70.516L111.918 70.252L111.874 69.988L111.742 69.702L111.698 69.438L111.654 69.108L111.588 68.536L111.676 68.316L111.61 68.008L111.654 67.744L111.764 67.502L111.808 67.194L111.874 66.908L111.896 66.644L112.028 66.336L112.072 66.05L112.226 65.742L112.314 65.412V65.126L112.49 64.862V64.51L112.666 64.246L112.754 63.938L112.82 63.652L112.93 63.344L112.996 63.014L113.106 62.75L113.216 62.42L113.414 62.112L113.502 61.826L113.634 61.54L113.986 61.232L114.294 61.21L114.602 61.232L114.954 61.21H115.284L115.548 61.496L115.438 61.826L115.262 62.112L115.174 62.442L115.042 62.684V62.992L114.888 63.278L114.822 63.608L114.668 63.916L114.602 64.18L114.47 64.466L114.404 64.796L114.294 65.082L114.184 65.39L114.162 65.72L114.074 66.006L113.898 66.314L113.854 66.578L113.81 66.93L113.722 67.194L113.678 67.546L113.568 67.832L113.502 68.118L113.568 68.734L113.612 69.02L113.744 69.262L113.986 69.416L114.228 69.526L114.844 69.57L115.042 69.46L115.284 69.35L115.614 69.262L115.79 69.086L115.966 68.888L116.274 68.624L116.384 68.404L116.604 68.184L116.802 67.898L116.956 67.678L117.11 67.37L117.352 67.106L117.484 66.842L117.638 66.556L117.792 66.292L117.968 65.984L118.034 65.698L118.166 65.368L118.342 65.06L118.518 64.774L118.562 64.466L118.694 64.202L118.826 63.894L119.024 63.608L119.112 63.3L119.178 62.97L119.442 62.376L119.53 62.112L119.64 61.804L119.838 61.518L120.256 61.21L120.476 61.232H120.806L121.158 61.21L121.378 61.188L121.62 61.518L121.554 61.848L121.444 62.09L121.136 62.684L121.07 62.97L120.96 63.278L120.916 63.608L120.784 63.894L120.696 64.158L120.564 64.488L120.454 64.752L120.366 65.06L120.278 65.412L120.168 65.654L120.036 65.984L119.948 66.292L119.838 66.6L119.816 66.886L119.706 67.172L119.596 67.524L119.53 67.788L119.552 68.096L119.508 68.426L119.486 68.998L119.596 69.284L119.816 69.482L120.41 69.548L120.718 69.438L120.96 69.328L121.268 69.13L121.422 68.932L121.708 68.734L121.84 68.492L122.082 68.272L122.302 68.008L122.434 67.788L122.698 67.546L122.874 67.26L123.006 67.04L123.16 66.732L123.402 66.49L123.556 66.248L123.622 65.962L123.864 65.698L124.26 65.61L124.524 65.83L124.678 66.292L124.48 66.512L124.392 66.798L124.172 67.106L124.062 67.348L123.842 67.59L123.666 67.854L123.512 68.162L123.314 68.404L123.16 68.668L122.962 68.954L122.764 69.152L122.654 69.394L122.39 69.636L122.214 69.922L121.972 70.12L121.796 70.362L121.51 70.56L121.224 70.714L120.982 70.89L120.762 71.066L120.08 71.242L119.86 71.33L119.266 71.308L118.936 71.242L118.65 71.088L118.386 70.934L118.166 70.692L118.012 70.45L117.946 70.164L117.836 69.856L117.726 69.592L117.748 68.866L117.902 68.514L117.88 68.206L117.748 68.492L117.638 68.756L117.44 68.976L117.286 69.284L117.11 69.526L116.868 69.768L116.67 69.966L116.406 70.23L116.164 70.428L115.966 70.582L115.702 70.758L115.482 70.934L115.152 71.088L114.932 71.198L114.646 71.286L114.272 71.308L113.7 71.352ZM135.927 71.352L135.575 71.22L135.311 71.11L135.113 71L134.849 70.736L134.629 70.538L134.497 70.23L134.409 69.922L134.387 69.592L134.299 68.976L134.365 68.69L134.409 68.404L134.541 68.052L134.585 67.766L134.695 67.502L134.827 67.216L134.871 66.93L135.025 66.644L135.091 66.358L135.201 66.094L135.355 65.808L135.509 65.478L135.531 65.192L135.707 64.906L135.795 64.598L135.883 64.312V64.048V63.432L135.773 63.124L135.553 62.86L135.245 62.728L134.673 62.684L134.475 62.794L134.189 62.882L133.991 63.036L133.793 63.212L133.551 63.366L133.309 63.564L133.133 63.828L132.979 64.026L132.825 64.29L132.561 64.598L132.429 64.862L132.231 65.126L132.121 65.368L131.945 65.632L131.791 65.962L131.681 66.248L131.571 66.512L131.373 66.798L131.263 67.084L131.153 67.392L131.043 67.722L130.889 67.964L130.779 68.272L130.669 68.602L130.625 68.888L130.449 69.218L130.405 69.504L130.207 69.768L130.097 70.076L130.053 70.384L129.965 70.714L129.481 71.022L129.195 71.044L128.843 70.978L128.557 71.044L128.249 71.022L128.007 70.736L128.095 70.45L128.227 70.142V69.878L128.337 69.548L128.469 69.306L128.579 68.976L128.645 68.69L128.733 68.404L128.821 68.14L128.931 67.854L128.975 67.524L129.085 67.216L129.129 66.974L129.283 66.644L129.305 66.358L129.371 66.094L129.503 65.786L129.525 65.456L129.657 65.17L129.679 64.884L129.767 64.576L129.833 64.29L129.811 63.982L129.767 63.41L129.701 63.124L129.503 62.926L129.261 62.706L128.777 62.684L128.535 62.772L128.271 62.904L128.139 63.014L127.831 63.234L127.677 63.41L127.523 63.608L127.259 63.85L127.149 64.114L126.929 64.378L126.775 64.642L126.621 64.906L126.423 65.17L126.313 65.412L126.225 65.742L126.027 65.962L125.939 66.292L125.807 66.556L125.631 66.886L125.499 67.15L125.455 67.458L125.323 67.7L125.235 68.052L125.037 68.316L124.905 68.624L124.839 68.91L124.773 69.24L124.619 69.504L124.531 69.812L124.443 70.098L124.355 70.406L124.267 70.736L123.805 70.978H123.585L123.255 71.022H122.969L122.595 70.978L122.331 70.736L122.485 70.45L122.595 70.142L122.617 69.812L122.749 69.548L122.793 69.262L122.859 68.932L123.035 68.624L123.057 68.316L123.189 68.03L123.277 67.722L123.387 67.48L123.475 67.128L123.563 66.842L123.585 66.534L123.651 66.248L123.827 65.984L123.871 65.676L123.981 65.368L124.091 65.06L124.113 64.796L124.223 64.466L124.333 64.158L124.399 63.916L124.465 63.586L124.553 63.322L124.619 63.014L124.795 62.706L124.883 62.42L124.971 62.09L125.037 61.826L125.059 61.496L125.543 61.188L126.115 61.232H126.467L126.665 61.54L126.533 62.068L126.467 62.398L126.401 62.662L126.335 62.992L126.313 63.278L126.203 63.586L126.159 63.828V64.158L126.313 63.872L126.401 63.608L126.599 63.322L126.709 63.058L126.907 62.816L127.127 62.596L127.347 62.354L127.545 62.09L127.743 61.914L127.963 61.65L128.227 61.474L128.491 61.32L128.711 61.166L129.041 61.078L129.283 60.946L130.207 60.924L130.581 60.968L130.779 61.1L131.065 61.32L131.219 61.496L131.395 61.782L131.571 62.046L131.615 62.332L131.703 62.64L131.659 63.3L131.681 63.63L131.571 63.916L131.483 64.202L131.505 64.554L131.659 64.268L131.791 64.026L131.945 63.762L132.055 63.498L132.253 63.212L132.407 62.97L132.649 62.706L132.781 62.486L132.979 62.288L133.243 62.068L133.375 61.826L133.617 61.628L133.925 61.496L134.123 61.298L134.387 61.166L134.717 61.056L135.025 60.99L135.311 60.902L135.861 60.924L136.213 60.946L136.477 61.056L136.741 61.144L137.027 61.364L137.247 61.518L137.445 61.76L137.599 62.024L137.775 62.332L137.841 62.64L137.885 62.904L137.863 63.542L137.797 63.85L137.775 64.158L137.709 64.466L137.599 64.774L137.533 65.06L137.445 65.346L137.335 65.654L137.247 65.94L137.115 66.248L137.005 66.556L136.829 66.798L136.785 67.106L136.609 67.414L136.499 67.722L136.433 67.964L136.345 68.272L136.235 68.602L136.301 69.218L136.521 69.504L137.137 69.526L137.423 69.482L137.665 69.328L137.885 69.152L138.083 68.998L138.303 68.734L138.787 68.338L138.897 68.052L139.183 67.81L139.293 67.546L139.447 67.304L139.645 67.062L139.865 66.776L139.975 66.534L140.195 66.248L140.327 65.962L140.503 65.676L140.921 65.632L141.273 65.83L141.383 66.248L141.185 66.556L140.987 66.798L140.833 67.084L140.701 67.348L140.503 67.612L140.371 67.854L140.217 68.096L139.997 68.36L139.843 68.624L139.689 68.866L139.425 69.13L139.249 69.35L139.073 69.592L138.875 69.856L138.633 70.098L138.479 70.318L138.149 70.494L137.907 70.736L137.709 70.89L137.467 71.066L137.181 71.176L136.807 71.286L136.499 71.352H135.927ZM142.977 71.308H142.757L142.427 71.242L142.141 71.11L141.811 71.022L141.503 70.824L141.261 70.692L141.063 70.472L140.821 70.208L140.711 69.966L140.557 69.702L140.425 69.438L140.293 69.13L140.205 68.822L140.139 68.514L140.161 68.206L140.073 67.59L140.117 67.282L140.227 66.996V66.688L140.337 66.358L140.315 66.116L140.491 65.786V65.522L140.601 65.236L140.689 64.906L140.821 64.642L140.931 64.334L141.041 64.048L141.063 63.762L141.173 63.498L141.283 63.212L141.415 62.882L141.547 62.596L141.701 62.376L141.745 62.09L141.877 61.804L141.987 61.518L142.449 61.232H142.735L142.955 61.21L143.241 61.188L143.527 61.232L143.725 61.496L143.593 61.826L143.439 62.112L143.351 62.42L143.197 62.728L143.109 62.992L142.977 63.3L142.867 63.608L142.757 63.894L143.087 63.784L143.373 63.74L143.769 63.63L144.033 63.608L144.649 63.586L145.023 63.608L145.287 63.674L145.617 63.784L145.793 63.938L146.079 64.048L146.299 64.268L146.563 64.422L146.761 64.686L146.937 64.884L147.047 65.148L147.179 65.434L147.311 65.72L147.399 66.028L147.509 66.292L147.553 66.578L147.531 66.93V67.502V67.832V68.074L147.443 68.382L147.311 68.712L147.179 68.976L147.135 69.262L146.937 69.482L146.739 69.724L146.585 70.01L146.387 70.208L146.145 70.406L145.859 70.56L145.683 70.758L145.353 70.868L145.067 71.022L144.781 71.132L144.495 71.22L144.253 71.264L143.901 71.33L143.637 71.308H142.977ZM143.901 69.57L144.231 69.504L144.759 69.284L145.089 69.086L145.265 68.866L145.485 68.602L145.617 68.36L145.793 68.052L145.859 67.766L145.903 67.48V66.842L145.837 66.512L145.749 66.27L145.617 65.962L145.441 65.72L145.177 65.522L145.001 65.346L144.715 65.214L144.429 65.148L143.835 65.126L143.483 65.214L143.285 65.236L142.977 65.368L142.713 65.5L142.471 65.654L142.185 66.072L142.031 66.358V66.666L141.965 66.908L141.877 67.216L141.833 67.48L141.877 68.074L141.899 68.426L142.053 68.712L142.229 68.976L142.361 69.152L142.713 69.394L142.911 69.482L143.241 69.548L143.901 69.57ZM72.5901 101.33H72.2381L72.0401 101.264L71.6881 101.154L71.3581 101.066L71.0721 100.956L70.8081 100.846L70.5221 100.648L70.2801 100.472L70.1261 100.274L69.8401 100.054L69.6641 99.856L69.4881 99.57L69.3781 99.306L69.2461 99.02L69.1361 98.734L69.0481 98.47L68.9381 98.14L68.8941 97.876L68.8281 97.568L68.7621 97.282V96.644L68.8281 96.358L68.8721 96.028L68.9381 95.764L68.9601 95.456L69.0481 95.17L69.1141 94.862L69.2461 94.532L69.3781 94.312L69.4661 93.982L69.5981 93.74L69.7521 93.498L69.9281 93.212L70.1261 92.948L70.2581 92.706L70.4561 92.486L70.6761 92.266L70.9401 92.068L71.1381 91.848L71.3581 91.672L71.6441 91.518L71.8641 91.386L72.2161 91.276L72.4141 91.122L72.7881 91.034L72.9861 91.012L73.3161 90.924H73.6681L74.2181 90.88L74.6141 90.968L74.9001 91.012L75.1861 91.1L75.3841 91.254L75.6701 91.386L75.9781 91.562L76.1321 91.826L76.3081 92.046L76.5281 92.332L76.5721 92.618L76.6381 92.882L76.6821 93.19L76.7481 93.784L76.6161 94.114L76.3081 94.4L75.8901 94.356H75.6261L75.2521 94.378L75.0321 94.136L74.9661 93.608L74.9441 93.322L74.8341 93.102L74.6141 92.838L74.2841 92.706L74.0641 92.64L73.4041 92.596L73.1401 92.706L72.9201 92.794L72.6561 92.926L72.3261 93.102L72.1501 93.234L71.9301 93.498L71.6661 93.696L71.4901 93.96L71.3361 94.202L71.2041 94.466L71.0721 94.73L70.9621 94.994L70.9181 95.302L70.8081 95.588L70.7861 95.896L70.6981 96.204L70.7201 96.534L70.6761 97.084L70.7421 97.414L70.7861 97.7L70.8741 97.964L70.9841 98.25L71.1161 98.536L71.2701 98.756L71.4901 99.02L71.6881 99.152L71.9301 99.306L72.2601 99.46L72.5241 99.548L72.8321 99.614L73.4701 99.57L73.7781 99.592L74.0201 99.548L74.3941 99.504L74.6801 99.394L74.8781 99.284L75.2301 99.196L75.4721 99.086L75.8021 98.932L76.3301 98.624L76.5061 98.404L76.8141 98.228L76.9901 97.986L77.2101 97.766L77.4081 97.568L77.6281 97.326L77.8261 97.062L78.0021 96.798L78.2221 96.534L78.3761 96.27L78.5301 95.962L78.7281 95.676L79.1021 95.61L79.3881 95.808L79.4981 96.27L79.4321 96.512L79.2121 96.798L79.0361 97.04L78.8821 97.304L78.7281 97.546L78.5521 97.832L78.3981 98.03L78.2221 98.316L78.0681 98.558L77.8041 98.778L77.6061 99.042L77.4741 99.24L77.2541 99.482L76.9901 99.68L76.7921 99.9L76.5281 100.054L76.2861 100.296L76.0441 100.45L75.7801 100.626L75.4941 100.758L75.2301 100.868L75.0321 100.956L74.6581 101.088L74.4381 101.176L74.0861 101.198L73.8661 101.286H73.5141L73.1841 101.33H72.5901ZM84.1034 101.33L83.7514 101.286L83.4434 101.22L83.2674 101.066L83.0034 100.912L82.8054 100.67L82.6294 100.472L82.4534 100.208L82.3654 99.944L82.2114 99.636L82.1234 99.328L82.0794 99.064L82.0574 98.734L81.9254 98.426L81.9034 98.14L81.8594 97.81L81.8154 97.502L81.7934 97.216L81.7714 96.908L81.4634 96.644L81.2654 96.666L80.9574 96.732L80.5834 96.71L80.3634 96.732L79.9894 97.084L79.9014 97.37L79.7254 97.656L79.7034 97.986L79.6374 98.272L79.5494 98.58L79.3954 98.91L79.2854 99.196L79.1754 99.526L79.0874 100.076L78.9774 100.406L78.8234 100.692L78.5154 100.978L78.1194 101.022L77.8114 100.978L77.5474 101.044H77.2394L76.9974 100.736L77.1294 100.406L77.2394 100.098V99.856L77.3494 99.548L77.4814 99.262L77.5254 98.954L77.6134 98.646L77.7234 98.338L77.7894 98.074L77.9214 97.766L78.0534 97.48L78.0754 97.172L78.2074 96.908L78.2954 96.556L78.3834 96.292L78.4934 95.984L78.5154 95.676L78.6474 95.434L78.6694 95.082L78.8014 94.818L79.0214 94.202L79.0874 93.938L79.1754 93.608L79.2854 93.322L79.3514 93.036L79.4834 92.75V92.486L79.6374 92.134L79.6814 91.87L79.7474 91.584L79.9014 91.298L79.9894 90.99L80.0334 90.682L80.1874 90.418L80.2094 90.088L80.2974 89.824L80.4294 89.538L80.5614 89.186V88.922L80.7374 88.636L80.8034 88.306L80.8474 88.042L80.9794 87.712L81.0674 87.426L81.1334 87.162L81.2214 86.854L81.2874 86.546L81.4194 86.26L81.5294 85.996L81.5514 85.688L81.6614 85.402L82.0354 85.094L82.3654 85.072L82.6954 85.094L83.0034 85.05H83.3114L83.4874 85.38L83.3114 85.974L83.2014 86.282L83.1794 86.524L83.0694 86.832L82.9814 87.162L82.9374 87.448L82.7834 87.712L82.7174 88.02L82.5854 88.35L82.4974 88.614L82.4094 88.9L82.3654 89.186L82.2554 89.494L82.1454 89.78L82.0574 90.088L82.0134 90.374L81.9254 90.704L81.7714 90.946L81.7494 91.276L81.6174 91.54L81.5074 91.848L81.4854 92.178L81.3534 92.42L81.2654 92.75L81.2214 93.036L81.0894 93.3L81.0014 93.652L80.8914 93.938L80.8694 94.202L80.7154 94.532L80.6714 94.818L80.8254 95.082H81.2214L81.4854 95.038L81.7714 94.928L82.1014 94.862L82.4094 94.796L82.6514 94.62L82.9374 94.488L83.2014 94.312L83.6414 93.938L83.8174 93.718L84.0154 93.454L84.2574 93.19L84.4114 92.904L84.5214 92.684L84.7194 92.376L84.7854 92.09L84.9834 91.782L85.0054 91.54L85.4894 91.188L85.7094 91.232L86.0614 91.188L86.3254 91.232L86.6554 91.188L86.8534 91.518L86.6774 91.826L86.6114 92.09L86.4574 92.354L86.3694 92.64L86.1934 92.904L86.0834 93.19L85.9734 93.432L85.7534 93.74L85.6214 93.96L85.4234 94.246L85.2914 94.422L85.0714 94.686L84.8734 94.906L84.6094 95.148L84.4334 95.346L84.1694 95.522L83.9054 95.698L83.6634 95.852L83.4654 96.358L83.5094 96.688L83.4214 96.996L83.4434 97.282L83.4874 97.59L83.5974 97.964L83.6414 98.25L83.6854 98.558L83.7514 98.844L83.9494 99.13L84.1474 99.372L84.4334 99.57H84.9614L85.2694 99.482L85.5554 99.372L85.8194 99.196L86.1054 98.998L86.2594 98.8L86.5674 98.558L86.7874 98.338L86.9194 98.052L87.1174 97.854L87.3374 97.568L87.4694 97.282L87.6674 97.018L87.7994 96.776L88.0634 96.512L88.1734 96.248L88.3714 95.962L88.5254 95.676L88.9874 95.61L89.2074 95.786L89.4054 96.292L89.2294 96.534L89.0754 96.82L88.8994 97.084L88.7674 97.282L88.5474 97.546L88.4154 97.832L88.2174 98.096L88.0854 98.382L87.8214 98.624L87.6674 98.866L87.4694 99.108L87.2714 99.328L87.0954 99.614L86.9634 99.812L86.7214 100.076L86.5234 100.252L86.2154 100.472L85.9734 100.692L85.8194 100.824L85.4674 101L85.2254 101.154L84.9614 101.242L84.6534 101.286L84.1034 101.33ZM89.8523 101.352L89.5883 101.286L89.3023 101.176L88.9283 101.066L88.7303 100.912L88.4443 100.714L88.2463 100.516L88.0703 100.252L88.0263 99.988L87.8943 99.702L87.8503 99.438L87.8063 99.108L87.7403 98.536L87.8283 98.316L87.7623 98.008L87.8063 97.744L87.9163 97.502L87.9603 97.194L88.0263 96.908L88.0483 96.644L88.1803 96.336L88.2243 96.05L88.3783 95.742L88.4663 95.412V95.126L88.6423 94.862V94.51L88.8183 94.246L88.9063 93.938L88.9723 93.652L89.0823 93.344L89.1483 93.014L89.2583 92.75L89.3683 92.42L89.5663 92.112L89.6543 91.826L89.7863 91.54L90.1383 91.232L90.4463 91.21L90.7543 91.232L91.1063 91.21H91.4363L91.7003 91.496L91.5903 91.826L91.4143 92.112L91.3263 92.442L91.1943 92.684V92.992L91.0403 93.278L90.9743 93.608L90.8203 93.916L90.7543 94.18L90.6223 94.466L90.5563 94.796L90.4463 95.082L90.3363 95.39L90.3143 95.72L90.2263 96.006L90.0503 96.314L90.0063 96.578L89.9623 96.93L89.8743 97.194L89.8303 97.546L89.7203 97.832L89.6543 98.118L89.7203 98.734L89.7643 99.02L89.8963 99.262L90.1383 99.416L90.3803 99.526L90.9963 99.57L91.1943 99.46L91.4363 99.35L91.7663 99.262L91.9423 99.086L92.1183 98.888L92.4263 98.624L92.5363 98.404L92.7563 98.184L92.9543 97.898L93.1083 97.678L93.2623 97.37L93.5043 97.106L93.6363 96.842L93.7903 96.556L93.9443 96.292L94.1203 95.984L94.1863 95.698L94.3183 95.368L94.4943 95.06L94.6703 94.774L94.7143 94.466L94.8463 94.202L94.9783 93.894L95.1763 93.608L95.2643 93.3L95.3303 92.97L95.5943 92.376L95.6823 92.112L95.7923 91.804L95.9903 91.518L96.4083 91.21L96.6283 91.232H96.9583L97.3103 91.21L97.5303 91.188L97.7723 91.518L97.7063 91.848L97.5963 92.09L97.2883 92.684L97.2223 92.97L97.1123 93.278L97.0683 93.608L96.9363 93.894L96.8483 94.158L96.7163 94.488L96.6063 94.752L96.5183 95.06L96.4303 95.412L96.3203 95.654L96.1883 95.984L96.1003 96.292L95.9903 96.6L95.9683 96.886L95.8583 97.172L95.7483 97.524L95.6823 97.788L95.7043 98.096L95.6603 98.426L95.6383 98.998L95.7483 99.284L95.9683 99.482L96.5623 99.548L96.8703 99.438L97.1123 99.328L97.4203 99.13L97.5743 98.932L97.8603 98.734L97.9923 98.492L98.2343 98.272L98.4543 98.008L98.5863 97.788L98.8503 97.546L99.0263 97.26L99.1583 97.04L99.3123 96.732L99.5543 96.49L99.7083 96.248L99.7743 95.962L100.016 95.698L100.412 95.61L100.676 95.83L100.83 96.292L100.632 96.512L100.544 96.798L100.324 97.106L100.214 97.348L99.9943 97.59L99.8183 97.854L99.6643 98.162L99.4663 98.404L99.3123 98.668L99.1143 98.954L98.9163 99.152L98.8063 99.394L98.5423 99.636L98.3663 99.922L98.1243 100.12L97.9483 100.362L97.6623 100.56L97.3763 100.714L97.1343 100.89L96.9143 101.066L96.2323 101.242L96.0123 101.33L95.4183 101.308L95.0883 101.242L94.8023 101.088L94.5383 100.934L94.3183 100.692L94.1643 100.45L94.0983 100.164L93.9883 99.856L93.8783 99.592L93.9003 98.866L94.0543 98.514L94.0323 98.206L93.9003 98.492L93.7903 98.756L93.5923 98.976L93.4383 99.284L93.2623 99.526L93.0203 99.768L92.8223 99.966L92.5583 100.23L92.3163 100.428L92.1183 100.582L91.8543 100.758L91.6343 100.934L91.3043 101.088L91.0843 101.198L90.7983 101.286L90.4243 101.308L89.8523 101.352ZM112.853 96.27L112.721 96.49L112.567 96.776L112.413 97.04L112.259 97.282L112.105 97.546L111.885 97.788L111.775 98.052L111.533 98.338L111.445 98.558L111.269 98.8L111.093 99.064L110.851 99.306L110.653 99.548L110.499 99.768L110.213 99.988L110.015 100.23L109.795 100.428L109.553 100.604L109.399 100.824L109.135 101L108.893 101.22L108.673 101.374L108.387 101.55L108.123 101.704L107.837 101.88L107.529 101.99L107.353 102.144L107.045 102.232L106.627 102.628L106.517 102.936L106.363 103.222L106.341 103.486L106.143 103.794L106.011 104.058L105.901 104.344L105.813 104.608L105.681 104.894L105.461 105.136L105.351 105.4L105.197 105.664L104.999 105.906L104.757 106.192L104.559 106.39L104.339 106.632L104.207 106.808L103.899 107.028L103.657 107.182L103.393 107.292L103.085 107.38L102.799 107.49L102.557 107.534L102.205 107.6L101.567 107.556L101.259 107.512L100.929 107.446L100.709 107.314L100.357 107.204L100.159 107.006L99.9395 106.742L99.7855 106.5L99.6095 106.214L99.5655 105.906L99.4775 105.62L99.4995 105.004L99.5215 104.674L99.5655 104.366L99.6315 104.146L99.7635 103.86L99.9615 103.618L100.181 103.398L100.401 103.222L100.621 103.046L100.885 102.892L101.149 102.694L101.369 102.562L101.699 102.474L101.941 102.364L102.293 102.232L102.535 102.166L102.865 102.078L103.173 101.99L103.415 101.924L103.789 101.836L104.031 101.748L104.361 101.704L104.603 101.616L104.933 101.55L105.307 101.374L105.461 100.912L105.483 100.692L105.527 100.362L105.659 100.098L105.769 99.812L105.747 99.526L105.593 99.724L105.351 99.966L105.087 100.164L104.779 100.296L104.581 100.406L104.251 100.56L103.987 100.626L103.635 100.692L103.371 100.736H102.755L102.403 100.692L102.117 100.648L101.875 100.538L101.501 100.362L101.325 100.23L101.039 100.032L100.863 99.834L100.599 99.57L100.467 99.306L100.313 99.064L100.137 98.778L100.115 98.448L99.9615 98.14L99.8955 97.854L99.8515 97.524L99.8955 97.238V96.578L99.8735 96.314L99.9395 95.984L99.9175 95.698L100.027 95.39L100.071 95.104L100.225 94.774L100.247 94.488L100.379 94.224L100.555 93.894L100.643 93.674L100.841 93.344L100.951 93.102L101.149 92.838L101.369 92.64L101.611 92.376L101.743 92.2L102.051 91.98L102.227 91.782L102.491 91.606L102.799 91.452L103.019 91.276L103.371 91.188L103.591 91.1L104.251 90.946L104.537 90.924L105.197 90.88L105.439 90.968L105.769 91.012L105.989 91.144L106.341 91.276L106.583 91.408L106.781 91.606L106.979 91.87L107.177 92.112L107.353 92.332L107.485 92.662L107.595 92.904L107.705 93.234L107.771 93.498L107.947 93.212L108.013 92.97L108.211 92.662L108.321 92.398L108.431 92.09L108.717 91.518L109.135 91.188H109.443L109.751 91.232L109.971 91.21L110.147 91.518L110.103 91.804L110.059 92.112L109.861 92.376L109.817 92.662L109.707 92.992L109.575 93.256L109.531 93.52L109.421 93.85L109.311 94.136L109.289 94.444L109.135 94.708L109.069 95.038L109.003 95.302L108.849 95.566L108.827 95.874L108.673 96.16L108.563 96.468L108.475 96.754L108.409 97.018L108.343 97.304L108.211 97.612L108.079 98.206L107.925 98.492L107.815 98.756L107.727 99.086L107.639 99.35L107.617 99.658L107.507 99.9L107.463 100.164L107.375 100.472L107.221 100.89L107.485 100.912L107.683 100.736L108.013 100.56L108.189 100.384L108.431 100.23L108.761 100.054L108.981 99.834L109.135 99.614L109.377 99.438L109.575 99.196L109.839 98.954L109.949 98.712L110.169 98.492L110.389 98.272L110.521 98.008L110.675 97.744L110.873 97.546L111.115 97.238L111.225 97.018L111.423 96.732L111.555 96.512L111.687 96.204L111.819 95.984L111.929 95.676L112.413 95.61L112.721 95.83L112.853 96.27ZM104.031 99.064L104.273 99.02L104.581 98.888L104.867 98.756L105.087 98.602L105.329 98.448L105.549 98.206L105.835 97.964L105.989 97.7L106.297 97.194L106.407 96.908L106.583 96.578V96.27L106.715 95.962L106.759 95.654L106.803 95.368L106.737 94.708L106.671 94.444L106.693 94.092L106.517 93.806L106.341 93.52L106.187 93.256L105.945 93.058L105.747 92.882L105.395 92.772L105.131 92.728L104.493 92.684L104.251 92.794L103.943 92.882L103.613 92.992L103.393 93.19L103.151 93.388L102.909 93.586L102.777 93.828L102.513 94.048L102.425 94.334L102.227 94.642L102.161 94.928L101.985 95.192L101.897 95.5L101.875 95.786L101.809 96.094L101.787 96.446L101.831 97.062L101.809 97.37L101.875 97.656L102.029 97.964L102.117 98.25L102.337 98.514L102.557 98.69L102.821 98.888L103.041 99.02L103.393 99.086L104.031 99.064ZM102.249 105.906L102.491 105.884L102.755 105.73L103.085 105.576L103.261 105.378L103.481 105.18L103.635 104.938L103.789 104.696L104.031 104.454L104.119 104.168L104.295 103.882L104.493 103.596L104.581 103.332L104.691 103.046L104.537 102.848L104.273 102.936L103.965 103.002L103.635 103.046L103.349 103.112L103.019 103.222L102.777 103.288L102.491 103.398L102.205 103.508L101.941 103.684L101.655 103.838L101.457 103.992L101.281 104.168L101.083 104.432L100.973 104.696L101.017 105.312L101.105 105.598L101.347 105.796L101.633 105.906H102.249ZM117.34 101.33L116.988 101.286L116.68 101.22L116.504 101.066L116.24 100.912L116.042 100.67L115.866 100.472L115.69 100.208L115.602 99.944L115.448 99.636L115.36 99.328L115.316 99.064L115.294 98.734L115.162 98.426L115.14 98.14L115.096 97.81L115.052 97.502L115.03 97.216L115.008 96.908L114.7 96.644L114.502 96.666L114.194 96.732L113.82 96.71L113.6 96.732L113.226 97.084L113.138 97.37L112.962 97.656L112.94 97.986L112.874 98.272L112.786 98.58L112.632 98.91L112.522 99.196L112.412 99.526L112.324 100.076L112.214 100.406L112.06 100.692L111.752 100.978L111.356 101.022L111.048 100.978L110.784 101.044H110.476L110.234 100.736L110.366 100.406L110.476 100.098V99.856L110.586 99.548L110.718 99.262L110.762 98.954L110.85 98.646L110.96 98.338L111.026 98.074L111.158 97.766L111.29 97.48L111.312 97.172L111.444 96.908L111.532 96.556L111.62 96.292L111.73 95.984L111.752 95.676L111.884 95.434L111.906 95.082L112.038 94.818L112.258 94.202L112.324 93.938L112.412 93.608L112.522 93.322L112.588 93.036L112.72 92.75V92.486L112.874 92.134L112.918 91.87L112.984 91.584L113.138 91.298L113.226 90.99L113.27 90.682L113.424 90.418L113.446 90.088L113.534 89.824L113.666 89.538L113.798 89.186V88.922L113.974 88.636L114.04 88.306L114.084 88.042L114.216 87.712L114.304 87.426L114.37 87.162L114.458 86.854L114.524 86.546L114.656 86.26L114.766 85.996L114.788 85.688L114.898 85.402L115.272 85.094L115.602 85.072L115.932 85.094L116.24 85.05H116.548L116.724 85.38L116.548 85.974L116.438 86.282L116.416 86.524L116.306 86.832L116.218 87.162L116.174 87.448L116.02 87.712L115.954 88.02L115.822 88.35L115.734 88.614L115.646 88.9L115.602 89.186L115.492 89.494L115.382 89.78L115.294 90.088L115.25 90.374L115.162 90.704L115.008 90.946L114.986 91.276L114.854 91.54L114.744 91.848L114.722 92.178L114.59 92.42L114.502 92.75L114.458 93.036L114.326 93.3L114.238 93.652L114.128 93.938L114.106 94.202L113.952 94.532L113.908 94.818L114.062 95.082H114.458L114.722 95.038L115.008 94.928L115.338 94.862L115.646 94.796L115.888 94.62L116.174 94.488L116.438 94.312L116.878 93.938L117.054 93.718L117.252 93.454L117.494 93.19L117.648 92.904L117.758 92.684L117.956 92.376L118.022 92.09L118.22 91.782L118.242 91.54L118.726 91.188L118.946 91.232L119.298 91.188L119.562 91.232L119.892 91.188L120.09 91.518L119.914 91.826L119.848 92.09L119.694 92.354L119.606 92.64L119.43 92.904L119.32 93.19L119.21 93.432L118.99 93.74L118.858 93.96L118.66 94.246L118.528 94.422L118.308 94.686L118.11 94.906L117.846 95.148L117.67 95.346L117.406 95.522L117.142 95.698L116.9 95.852L116.702 96.358L116.746 96.688L116.658 96.996L116.68 97.282L116.724 97.59L116.834 97.964L116.878 98.25L116.922 98.558L116.988 98.844L117.186 99.13L117.384 99.372L117.67 99.57H118.198L118.506 99.482L118.792 99.372L119.056 99.196L119.342 98.998L119.496 98.8L119.804 98.558L120.024 98.338L120.156 98.052L120.354 97.854L120.574 97.568L120.706 97.282L120.904 97.018L121.036 96.776L121.3 96.512L121.41 96.248L121.608 95.962L121.762 95.676L122.224 95.61L122.444 95.786L122.642 96.292L122.466 96.534L122.312 96.82L122.136 97.084L122.004 97.282L121.784 97.546L121.652 97.832L121.454 98.096L121.322 98.382L121.058 98.624L120.904 98.866L120.706 99.108L120.508 99.328L120.332 99.614L120.2 99.812L119.958 100.076L119.76 100.252L119.452 100.472L119.21 100.692L119.056 100.824L118.704 101L118.462 101.154L118.198 101.242L117.89 101.286L117.34 101.33ZM132.043 98.888L131.955 99.108L131.779 99.35L131.581 99.548L131.339 99.768L131.097 100.01L130.943 100.208L130.745 100.472L130.547 100.67L130.283 100.824L130.019 101.022L129.755 101.198L129.535 101.396L129.095 101.748L128.831 101.836L128.523 101.99L128.259 102.122L127.907 102.232L127.577 102.65L127.423 102.892L127.335 103.156L127.247 103.442L127.159 103.728L126.961 104.036L126.895 104.3L126.719 104.564L126.609 104.828L126.455 105.114L126.301 105.378L126.125 105.664L125.949 105.884L125.685 106.148L125.487 106.368L125.289 106.566L125.091 106.808L124.805 106.984L124.629 107.116L124.343 107.314L124.057 107.402L123.749 107.49L123.507 107.534L123.155 107.6L122.297 107.556L121.989 107.49L121.681 107.358L121.461 107.226L121.153 107.094L120.977 106.874L120.735 106.676L120.581 106.412L120.515 106.126L120.383 105.862L120.339 105.554L120.405 104.938V104.674L120.493 104.344L120.603 104.058L120.801 103.838L120.933 103.552L121.175 103.376L121.395 103.178L121.615 102.958L121.835 102.826L122.165 102.65L122.385 102.496L122.715 102.408L123.045 102.298L123.331 102.21L123.617 102.1L123.903 101.99L124.211 101.946L124.541 101.836L124.915 101.77L125.179 101.682L125.531 101.616L125.751 101.55L126.279 101.176L126.455 100.494L126.499 100.252L126.631 99.966V99.68L126.719 99.394L126.807 99.064L126.917 98.778L126.675 99.042L126.433 99.328L126.235 99.526L126.103 99.746L125.839 99.966L125.641 100.142L125.333 100.34L125.113 100.472L124.827 100.626L124.541 100.736L124.277 100.802L123.881 100.846L123.375 100.868L122.979 100.824L122.737 100.736L122.429 100.626L122.165 100.472L121.923 100.274L121.769 100.032L121.571 99.79L121.439 99.526L121.329 99.24L121.263 98.91L121.175 98.602L121.219 98.052L121.241 97.766L121.285 97.458L121.241 97.15L121.329 96.842L121.439 96.578L121.461 96.27L121.527 95.94L121.593 95.632L121.747 95.346V95.038L121.835 94.752L121.945 94.488L122.077 94.202L122.165 93.894L122.231 93.586L122.341 93.278L122.429 92.97L122.539 92.684L122.605 92.398L122.759 92.09L122.803 91.826L122.913 91.518L123.309 91.188L123.683 91.232H123.947L124.321 91.188H124.585L124.893 91.54L124.761 91.804L124.629 92.112L124.585 92.354L124.475 92.684L124.343 92.97L124.233 93.234L124.145 93.542V93.806L123.991 94.092L123.947 94.378L123.815 94.664L123.727 94.972L123.705 95.302L123.617 95.566L123.463 95.874V96.182L123.353 96.446L123.309 96.732L123.199 97.04V97.348L123.133 97.612L123.199 98.25L123.309 98.536L123.463 98.8L123.727 98.932L123.925 99.086H124.519L124.783 98.976L125.157 98.932L125.399 98.756L125.553 98.624L125.839 98.426L126.081 98.162L126.257 97.986L126.477 97.722L126.675 97.458L126.785 97.238L127.027 96.93L127.203 96.71L127.291 96.424L127.423 96.182L127.555 95.852L127.775 95.566L127.885 95.28L127.951 95.038L128.061 94.752L128.237 94.444L128.391 94.158L128.435 93.872L128.567 93.564L128.721 93.3L128.809 92.992L128.919 92.706L129.007 92.398L129.073 92.09L129.139 91.826L129.315 91.496L129.733 91.21H129.997L130.349 91.188L130.591 91.232L130.943 91.188L131.163 91.518L131.053 91.804L130.899 92.112L130.811 92.442L130.767 92.728L130.635 92.992L130.547 93.278L130.393 93.608L130.327 93.916L130.239 94.18L130.173 94.488L130.085 94.818L129.997 95.104L129.843 95.39L129.799 95.698L129.645 95.984L129.623 96.292L129.381 96.864L129.271 97.15L129.227 97.458L129.139 97.788L129.007 98.074L128.941 98.382L128.853 98.646L128.721 98.932L128.655 99.284L128.589 99.548L128.523 99.878L128.391 100.186L128.347 100.428L128.193 100.89L128.413 100.868L128.611 100.758L128.897 100.56L129.139 100.406L129.425 100.252L129.689 100.054L129.887 99.856L130.129 99.614L130.525 99.174L130.745 98.932L130.943 98.734L131.097 98.492L131.295 98.228H131.713L131.977 98.426L132.043 98.888ZM123.199 105.95L123.485 105.862L123.683 105.752L123.947 105.576L124.189 105.334L124.365 105.114L124.497 104.916L124.739 104.652L124.871 104.388L124.981 104.124L125.135 103.86L125.333 103.64L125.399 103.354L125.575 103.046L125.355 102.87L125.003 102.892L124.783 103.002L124.409 103.09L124.101 103.178L123.837 103.266L123.551 103.354L123.177 103.464L122.891 103.596L122.693 103.772L122.363 103.926L122.121 104.168L122.011 104.432L121.923 104.718L121.857 105.356L122.011 105.62L122.297 105.818L122.583 105.928L123.199 105.95ZM100.183 119.85L99.5834 119.8L98.8834 119.85L97.9834 119.8H96.7334L95.8334 119.85H95.1334L94.4334 119.8L93.9334 119.85H93.2334L92.3334 119.8L91.6834 119.85L90.8834 119.8L90.2334 119.85L89.6334 119.8H88.9834L88.1334 119.9H87.4334L86.6834 120.45L86.4834 121.2L86.0834 121.9L85.9334 122.55L85.8834 123.2L85.5834 123.9L85.4334 124.45L85.1834 125.15L85.0334 125.8L84.7834 126.6L84.4834 127.2L84.3834 127.95L84.0834 128.55L84.6334 129.05L85.2834 128.75L85.8834 128.65L86.6334 128.55L87.2334 128.4L87.9334 128.25L88.5334 128.2L90.0334 128.3L90.5834 128.35L91.2334 128.3L91.9834 128.45L92.8334 128.7L93.4334 128.9L94.0334 129.15L94.7834 129.3L95.3834 129.75L96.4334 130.5L97.0334 130.95L97.3334 131.45L97.9334 132.05L98.1334 132.6L98.4834 133.3L98.9334 133.9L98.9834 134.55L99.2834 135.25L99.3334 135.9L99.4834 136.65V137.3L99.6334 138L99.6834 138.65L99.5834 139.4L99.3834 140.05L99.3334 140.85L99.0834 141.5V142.1L98.5834 143.45L98.1834 144.15L97.9334 144.75L97.5834 145.35L97.1834 145.9L96.7334 146.6L96.2834 147.1L95.9334 147.6L95.4334 148.05L94.8334 148.5L93.5834 149.4L93.1834 149.8L92.4334 150.15L91.7834 150.45L91.2834 150.65L90.4834 150.95L89.7834 151.15L89.0834 151.35L88.4834 151.5L87.7834 151.7L87.1334 151.65L86.2834 151.8L84.9334 151.7L84.2334 151.75L83.4834 151.6L82.9334 151.4L82.1834 151.3L81.5834 151.05L80.8334 150.75L80.3834 150.5L79.5834 150.1L79.1334 149.8L78.5334 149.3L77.8834 148.95L77.4834 148.45L77.1334 147.85L76.5834 147.35L76.1334 146.85L75.9834 146.2L75.5334 145.55L75.4334 144.85L75.1834 144.25L75.5334 143.4L76.3834 143.15L76.9834 143L77.6334 142.9L78.4834 142.75L79.2334 143.2L79.7334 143.85L79.8834 144.4L80.9334 145.55L81.5834 145.9L82.2334 146.35L82.8334 146.75L83.4834 146.95L84.1834 147.15L84.9334 147.35L85.4834 147.4L86.9334 147.45L87.6834 147.4L88.3334 147.2L89.0334 147.05L90.3334 146.65L90.8834 146.25L91.4334 145.9L92.0334 145.6L92.5334 145.15L92.8834 144.65L93.5334 144.05L93.7334 143.5L94.1834 142.9L94.5334 142.4L94.9334 141.1L94.9834 140.35L95.3334 139.6V139L95.2834 138.2V137.5L95.2334 136.9L95.1334 136.15L94.6834 135.45L94.4834 134.85L93.9834 134.35L93.6834 133.8L93.0834 133.3L92.3834 132.95L91.8334 132.6L91.2834 132.4L90.4334 132.2L89.7334 132L89.1334 131.95L87.6834 131.9L87.0834 132.1L86.3334 132.2L85.4834 132.4L84.8334 132.5L84.0834 132.75L82.8834 133.35L81.4834 133.75L80.7334 133.65L80.2334 133.7L79.5334 133.75L78.9334 133.05L79.0334 132.4L79.4334 131.7L79.4834 131L79.7834 130.25L79.9334 129.7L80.0834 128.95L80.4834 128.35L80.6834 127.65L80.7334 126.95L81.0834 126.25L81.2834 125.5L81.4334 124.85L81.8834 123.45L82.1834 122.85L82.2334 122.2L82.3834 121.5L82.6334 120.75L82.8334 120.05L83.1834 119.4L83.4334 118.75V118L83.6834 117.45L83.8834 116.7L84.8834 116L85.4834 115.95L86.1834 116L86.9334 115.95H87.5834L88.9334 116.05L89.7334 116H90.4334L90.9834 115.95L91.8334 116H92.4834L93.2834 115.95L93.7834 116L94.4834 115.95L95.1834 116L95.9834 115.95H96.7334L97.3334 116H97.9834L98.7334 116.05H100.833L101.633 115.95L101.983 116.6L101.783 117.3L101.633 118L101.183 119.3L100.183 119.85ZM110.801 128.35L110.351 128.3L109.601 128.1L108.801 127.85L108.201 127.45L107.751 127.1L107.151 126.65L106.901 126.1L106.351 125.4L106.151 124.85L106.051 124.05L105.951 123.45L105.851 122.1L105.901 121.35L106.051 120.75L106.501 120.1L106.801 119.4L107.051 118.85L107.401 118.3L107.801 117.75L108.251 117.2L108.901 116.8L109.301 116.4L109.951 116.05L110.601 115.8L111.301 115.5L112.001 115.35L112.701 115.25L114.051 115.35L114.551 115.4L115.351 115.65L115.901 115.8L116.651 116.2L117.201 116.55L117.551 117L118.051 117.65L118.451 118.25L118.601 118.8L118.801 119.55L118.901 120.15L118.951 121.55L118.901 122.2L118.751 122.95L118.601 123.55L118.201 124.1L117.951 124.7L117.451 125.4L117.101 125.9L116.651 126.4L115.951 126.8L115.451 127.25L114.851 127.6L114.401 127.85L113.601 128.05L113.051 128.2L112.251 128.4L110.801 128.35ZM100.701 150.45L101.151 149.95L101.551 149.4L102.201 148.9L102.451 148.35L103.101 147.85L103.351 147.35L103.901 146.85L104.301 146.25L104.901 145.75L105.301 145.2L105.801 144.7L106.301 144.15L106.651 143.55L107.301 143.05L107.651 142.55L108.151 141.95L108.551 141.5L109.101 141L109.451 140.35L109.851 139.9L110.501 139.35L111.001 138.9L111.301 138.35L111.751 137.8L112.201 137.25L112.651 136.75L113.251 136.2L114.251 135.15L114.951 134.05L115.501 133.45L115.951 133L116.451 132.4L116.851 131.95L117.351 131.4L117.751 130.85L118.251 130.4L118.801 129.75L119.251 129.3L119.751 128.7L120.251 128.25L120.751 127.65L121.151 127.2L121.651 126.65L121.901 126.1L122.401 125.55L123.001 125.05L123.401 124.5L123.751 124.05L124.401 123.5L124.751 122.85L125.351 122.4L125.751 121.8L126.151 121.3L126.601 120.85L127.001 120.3L127.601 119.8L128.001 119.2L128.401 118.7L128.951 118.1L129.351 117.65L129.951 117.1L130.401 116.55L131.551 116.05H132.401L133.051 115.95L133.701 116L134.401 115.95H135.101L135.351 116.6L135.051 117.05L134.601 117.6L134.101 118.1L133.601 118.7L133.251 119.25L132.301 120.3L131.651 120.75L131.401 121.35L130.851 121.9L130.351 122.45L129.801 122.9L129.551 123.5L128.951 124.05L128.551 124.5L128.101 125.1L127.551 125.6L127.101 126.15L126.701 126.65L126.301 127.2L125.701 127.75L125.351 128.25L124.901 128.7L124.301 129.3L123.901 129.8L123.451 130.4L122.851 130.9L122.501 131.35L121.901 131.95L121.451 132.5L121.001 133L120.551 133.55L120.151 134.1L119.801 134.6L119.301 135.05L118.701 135.7L118.251 136.25L117.851 136.7L117.351 137.3L116.951 137.75L116.351 138.25L116.101 138.85L115.001 139.95L114.551 140.35L114.201 140.9L113.651 141.55L113.301 141.95L112.651 142.5L112.251 143L111.301 144.2L110.951 144.6L110.351 145.25L109.901 145.65L109.601 146.2L109.101 146.85L108.101 147.85L107.551 148.3L107.151 148.9L106.601 149.45L105.901 150.5L104.551 151.05L103.951 151.1L103.251 150.95L101.801 151.1H100.951L100.701 150.45ZM112.551 125L113.351 124.9L114.501 124.2L114.901 123.7L115.201 123.2L115.451 122.55L115.601 122L115.651 120.55L115.351 119.8L115.001 119.3L114.351 118.75L113.551 118.5L112.201 118.55L111.501 118.75L111.051 119.05L110.551 119.5L110.051 119.85L109.551 120.4L109.401 121.05L109.101 121.7V123.05L109.551 123.75L109.901 124.45L110.601 124.8L111.151 125H112.551ZM121.951 151.7L121.101 151.6L120.401 151.45L119.751 151.2L119.201 150.85L118.601 150.4L118.201 150.05L117.851 149.45L117.451 148.9L117.051 148.2L116.951 147.5L116.801 146.85L116.701 145.45L116.851 144.75L117.001 144.05L117.301 143.4L117.701 142.85L118.001 142.25L118.301 141.65L118.801 141.2L119.251 140.7L119.651 140.2L120.351 139.9L120.951 139.45L121.601 139.25L122.101 139L122.901 138.75H123.601L124.851 138.65L125.551 138.75L126.201 138.95L126.901 139.25L127.451 139.5L128.101 140L128.701 140.4L128.951 140.95L129.451 141.65L129.651 142.2L129.751 142.95L130.001 143.55L129.951 144.9V145.65L129.551 146.35L129.351 146.95L129.101 147.5L128.901 148.15L128.401 148.8L127.951 149.3L127.601 149.75L127.101 150.25L126.551 150.55L125.851 150.95L125.251 151.25L123.851 151.65L123.351 151.7H121.951ZM123.701 148.4L124.301 148.3L124.901 148L125.251 147.65L125.851 147.1L126.201 146.55L126.401 145.95L126.701 145.3L126.751 144L126.301 143.2L125.801 142.65L125.201 142.25L124.501 142.05L123.201 142L122.651 142.15L121.951 142.45L121.301 142.85L121.051 143.3L120.451 143.8L120.301 144.5L120.101 145.15L120.051 146.55L120.451 147.2L120.801 147.8L121.451 148.2L122.101 148.4H123.701Z" fill="white"></path> </svg> 