<?xml version="1.0" encoding="UTF-8"?> <svg xmlns="http://www.w3.org/2000/svg" width="70" height="69" viewBox="0 0 70 69" fill="none"> <path fill-rule="evenodd" clip-rule="evenodd" d="M53.9928 46.428L56.3849 60.4723C56.6453 62.0013 56.0567 63.4585 54.8105 64.3704C53.5639 65.2821 52.0059 65.3953 50.6426 64.6737L38.1182 58.0427C36.1649 57.0088 33.833 57.0088 31.8801 58.0427L19.3557 64.6737C17.9922 65.3959 16.4341 65.2821 15.1877 64.3704C13.9416 63.4584 13.353 62.0013 13.6135 60.4723L16.0053 46.428C16.3783 44.2377 15.6575 42.0042 14.0776 40.4532L3.94531 30.507C2.84205 29.4242 2.46776 27.897 2.94376 26.4214C3.41976 24.9461 4.61401 23.9321 6.1385 23.7091L20.1411 21.6601C22.3247 21.3405 24.2113 19.9601 25.1881 17.9675L31.4502 5.18945C32.132 3.79838 33.4587 2.96781 34.9991 2.96781C36.5396 2.96781 37.8663 3.79838 38.5481 5.18945L44.8103 17.9675C45.7869 19.9601 47.6735 21.3404 49.8571 21.6601L63.8598 23.7091C65.3842 23.9321 66.5784 24.9461 67.0546 26.4216C67.5306 27.897 67.1561 29.4242 66.053 30.507L55.9206 40.4532C54.3406 42.0043 53.6199 44.2378 53.9928 46.428ZM67.9692 32.4867C69.8095 30.6801 70.4596 28.0288 69.6653 25.5672C68.871 23.1058 66.7978 21.3454 64.2544 20.9733L50.2517 18.9243C48.9626 18.7356 47.8485 17.9205 47.2719 16.744L41.0098 3.96605C39.8723 1.64516 37.5692 0.203369 34.9991 0.203369C32.4291 0.203369 30.1259 1.64516 28.9884 3.96605L22.7264 16.744C22.1497 17.9207 21.0357 18.7356 19.7464 18.9243L5.7439 20.9733C3.20043 21.3454 1.12733 23.1058 0.333033 25.5671C-0.461124 28.0287 0.188778 30.6801 2.02909 32.4867L12.1615 42.4329C13.0944 43.3486 13.5199 44.6674 13.2996 45.9606L10.9078 60.0051C10.4734 62.5558 11.495 65.0854 13.5742 66.6067C14.7492 67.4664 16.1237 67.9032 17.5077 67.9031C18.5727 67.9031 19.6438 67.6443 20.633 67.1206L33.1574 60.4897C34.3106 59.8792 35.6877 59.8792 36.8408 60.4897L49.3652 67.1206C51.6399 68.3248 54.3446 68.128 56.424 66.6068C58.5032 65.0856 59.5249 62.556 59.0906 60.0051L56.6985 45.9606C56.4782 44.6676 56.9039 43.3488 57.8368 42.4329L67.9692 32.4867ZM44.2417 43.9198C43.5193 43.6871 42.7471 44.0871 42.5156 44.814C42.5013 44.8588 41.0162 49.3 34.9103 49.3C28.8815 49.3 27.3633 44.9875 27.305 44.814C27.0736 44.0871 26.3006 43.6874 25.5789 43.9198C24.8572 44.153 24.4596 44.9312 24.6911 45.6581C24.7456 45.8295 25.2683 47.3777 26.7844 48.9287C28.1826 50.3592 30.7273 52.0644 34.9103 52.0644C39.0933 52.0644 41.638 50.3592 43.0363 48.9287C44.5525 47.3777 45.0748 45.8295 45.1296 45.6581C45.361 44.9312 44.9635 44.153 44.2417 43.9198ZM57.7053 25.991C57.6675 25.6053 57.4707 25.2534 57.163 25.0209C56.8553 24.7887 56.4646 24.6969 56.0865 24.7681L36.4301 28.4801H33.5057L13.8495 24.7681C13.4715 24.6972 13.0808 24.7886 12.773 25.0209C12.4653 25.2534 12.2684 25.6053 12.2307 25.991C12.2157 26.1415 11.8788 29.7213 12.7203 33.4884C13.9108 38.8188 16.8514 41.8949 21.2239 42.3841C21.8355 42.4525 22.4295 42.4866 23.0063 42.4866C25.883 42.4866 28.3203 41.6362 30.2686 39.9485C31.9191 38.5188 32.9626 36.6964 33.6225 34.9975H36.3134C36.9732 36.6964 38.0169 38.5188 39.6673 39.9485C41.6157 41.6362 44.0527 42.4866 46.9297 42.4866C47.5062 42.4866 48.1006 42.4525 48.7122 42.3841C53.0847 41.8949 56.0252 38.8188 57.2157 33.4884C58.0571 29.7213 57.7201 26.1415 57.7053 25.991Z" fill="black"></path> <path fill-rule="evenodd" clip-rule="evenodd" d="M57.7053 25.9909C57.6676 25.6053 57.4707 25.2534 57.163 25.0209C56.8553 24.7887 56.4647 24.6969 56.0865 24.7681L36.4301 28.48H33.5058L13.8495 24.7681C13.4715 24.6972 13.0809 24.7885 12.773 25.0209C12.4653 25.2534 12.2684 25.6053 12.2307 25.9909C12.2157 26.1414 11.8788 29.7212 12.7203 33.4883C13.9108 38.8187 16.8514 41.8949 21.2239 42.384C21.8355 42.4525 22.4296 42.4866 23.0063 42.4866C25.883 42.4866 28.3203 41.6361 30.2686 39.9484C31.9191 38.5188 32.9626 36.6963 33.6226 34.9975H36.3134C36.9732 36.6963 38.0169 38.5188 39.6673 39.9484C41.6157 41.6361 44.0527 42.4866 46.9297 42.4866C47.5062 42.4866 48.1006 42.4525 48.7122 42.384C53.0848 41.8949 56.0252 38.8187 57.2157 33.4883C58.0571 29.7212 57.7201 26.1414 57.7053 25.9909Z" fill="#FFB800"></path> </svg> 