<?xml version="1.0" encoding="UTF-8"?> <svg xmlns="http://www.w3.org/2000/svg" width="48" height="68" viewBox="0 0 48 68" fill="none"> <g clip-path="url(#clip0_649_361)"> <path d="M42 56H6C5.46957 56 4.96086 55.7893 4.58579 55.4142C4.21071 55.0391 4 54.5304 4 54C4 53.4696 4.21071 52.9609 4.58579 52.5858C4.96086 52.2107 5.46957 52 6 52H45C45.5304 52 46.0391 51.7893 46.4142 51.4142C46.7893 51.0391 47 50.5304 47 50C47 49.4696 46.7893 48.9609 46.4142 48.5858C46.0391 48.2107 45.5304 48 45 48H6C4.4087 48 2.88258 48.6321 1.75736 49.7574C0.63214 50.8826 0 52.4087 0 54C0 55.5913 0.63214 57.1174 1.75736 58.2426C2.88258 59.3679 4.4087 60 6 60H42C42.5304 60 43.0391 60.2107 43.4142 60.5858C43.7893 60.9609 44 61.4696 44 62C44 62.5304 43.7893 63.0391 43.4142 63.4142C43.0391 63.7893 42.5304 64 42 64H3C2.46957 64 1.96086 64.2107 1.58579 64.5858C1.21071 64.9609 1 65.4696 1 66C1 66.5304 1.21071 67.0391 1.58579 67.4142C1.96086 67.7893 2.46957 68 3 68H42C43.5913 68 45.1174 67.3679 46.2426 66.2426C47.3679 65.1174 48 63.5913 48 62C48 60.4087 47.3679 58.8826 46.2426 57.7574C45.1174 56.6321 43.5913 56 42 56Z" fill="black" stroke="white"></path> <path d="M9.56678 43.4128C9.66031 43.506 9.76281 43.5897 9.87278 43.6628C9.92228 43.6959 9.97598 43.7186 10.0276 43.7469C10.1472 43.8247 10.2802 43.8798 10.4198 43.9095C10.4768 43.9263 10.5314 43.9484 10.5904 43.9601C10.8489 44.0128 11.1153 44.0128 11.3738 43.9601C11.4328 43.9484 11.4874 43.9263 11.5444 43.9095C11.684 43.8798 11.8169 43.8247 11.9366 43.7469C11.9882 43.7186 12.0419 43.6959 12.0914 43.6628C12.2013 43.5897 12.3038 43.506 12.3974 43.4128L18.3962 37.4141C18.7634 37.0374 18.9674 36.5313 18.9641 36.0052C18.9608 35.4792 18.7503 34.9757 18.3784 34.6037C18.0064 34.2317 17.5029 34.0213 16.9768 34.018C16.4508 34.0146 15.9446 34.2187 15.568 34.5859L12.9821 37.1719V2C12.9821 1.46957 12.7714 0.960859 12.3963 0.585786C12.0212 0.210714 11.5125 0 10.9821 0C10.4516 0 9.94293 0.210714 9.56786 0.585786C9.19279 0.960859 8.98208 1.46957 8.98208 2V37.1719L6.39618 34.5859C6.01953 34.2187 5.51336 34.0146 4.98733 34.018C4.46129 34.0213 3.95775 34.2317 3.58578 34.6037C3.21381 34.9757 3.00337 35.4792 3.00004 36.0052C2.99671 36.5313 3.20075 37.0374 3.56798 37.4141L9.56678 43.4128Z" fill="#FFB800"></path> <path d="M35.5668 43.4128C35.6603 43.506 35.7628 43.5897 35.8728 43.6628C35.9223 43.6959 35.976 43.7186 36.0276 43.7469C36.1472 43.8247 36.2802 43.8798 36.4198 43.9095C36.4768 43.9263 36.5314 43.9484 36.5904 43.9601C36.8489 44.0128 37.1153 44.0128 37.3738 43.9601C37.4328 43.9484 37.4874 43.9263 37.5444 43.9095C37.684 43.8798 37.8169 43.8247 37.9366 43.7469C37.9882 43.7186 38.0419 43.6959 38.0914 43.6628C38.2013 43.5897 38.3038 43.506 38.3974 43.4128L44.3962 37.4141C44.7634 37.0374 44.9674 36.5313 44.9641 36.0052C44.9608 35.4792 44.7503 34.9757 44.3784 34.6037C44.0064 34.2317 43.5029 34.0213 42.9768 34.018C42.4508 34.0146 41.9446 34.2187 41.568 34.5859L38.9821 37.1719V2C38.9821 1.46957 38.7714 0.960859 38.3963 0.585786C38.0212 0.210714 37.5125 0 36.9821 0C36.4516 0 35.9429 0.210714 35.5679 0.585786C35.1928 0.960859 34.9821 1.46957 34.9821 2V37.1719L32.3962 34.5859C32.0195 34.2187 31.5134 34.0146 30.9873 34.018C30.4613 34.0213 29.9578 34.2317 29.5858 34.6037C29.2138 34.9757 29.0034 35.4792 29 36.0052C28.9967 36.5313 29.2008 37.0374 29.568 37.4141L35.5668 43.4128Z" fill="#FFB800"></path> </g> <defs> <clipPath id="clip0_649_361"> <rect width="48" height="68" fill="white"></rect> </clipPath> </defs> </svg> 