<?xml version="1.0" encoding="UTF-8"?> <svg xmlns="http://www.w3.org/2000/svg" width="70" height="57" viewBox="0 0 70 57" fill="none"> <path d="M2 48.868V9.33653L16.2581 10.8359V54.6155L2 48.868Z" stroke="black" stroke-width="2" stroke-linejoin="round"></path> <path d="M67.8388 23.1284C63.7743 23.1285 61.2903 17.5207 52.4838 19.9673C44.3548 22.2258 42.5483 29.9032 38.0322 28.0967C33.5161 26.2903 29.9032 24.935 26.742 26.7414C24.4557 28.0479 18.6861 31.7091 17.258 31.7092C14.0966 31.7092 12.2903 25.3866 10.0322 25.8382C7.64742 26.3152 7.77414 28.5479 6.4193 29.9027C5.14195 31.1801 4.61285 28.0967 2.8064 28.0967" stroke="#FFB800" stroke-width="3"></path> <path d="M67.8388 30.0693C63.7743 30.0694 61.2903 24.4616 52.4838 26.9082C44.3548 29.1667 42.5483 36.8441 38.0322 35.0376C33.5161 33.2312 29.9032 31.8759 26.742 33.6823C24.4557 34.9888 18.6861 38.6501 17.258 38.6501C14.0966 38.6501 12.2903 32.3275 10.0322 32.7791C7.64742 33.2561 7.77414 35.4888 6.4193 36.8436C5.14195 38.121 4.61285 33.9677 2.8064 33.9677" stroke="#FFB800" stroke-width="3"></path> <path d="M16.4517 54.3118V11.1774L68.6452 3.07051V39.9948L17.7391 55.2696C17.0974 55.4621 16.4517 54.9817 16.4517 54.3118Z" stroke="black" stroke-width="2" stroke-linejoin="round"></path> <path d="M16.748 10.9355L1 8.86559L54.1592 1L69.6452 2.65591L16.748 10.9355Z" stroke="black" stroke-width="2"></path> </svg> 