<?xml version="1.0" encoding="UTF-8"?> <svg xmlns="http://www.w3.org/2000/svg" width="45" height="60" viewBox="0 0 45 60" fill="none"> <g clip-path="url(#clip0_649_348)"> <path d="M4.49163 59.2H40.5088C42.5277 59.2 44.1645 57.5433 44.1645 55.5V3.7C44.1645 1.65667 42.5277 0 40.5088 0H4.49163C2.47227 0 0.835938 1.65667 0.835938 3.7V55.5C0.835938 57.5433 2.47227 59.2 4.49163 59.2ZM2.67969 3.7C2.67969 2.67972 3.49232 1.85 4.49163 1.85H40.5088C41.5072 1.85 42.3203 2.67972 42.3203 3.7V55.5C42.3203 56.5203 41.5072 57.35 40.5084 57.35H4.49163C3.49232 57.35 2.67969 56.5203 2.67969 55.5V3.7Z" fill="black"></path> <path d="M30.1217 43.6725C29.6594 44.0892 29.0993 44.3866 28.4798 44.5438L30.2328 49.1471C29.7986 48.9935 29.5215 48.8927 29.5165 48.8904L27.9871 48.3317L27.245 49.7849L26.9057 50.45L24.9758 45.3828C24.9135 45.4263 24.8518 45.4707 24.7891 45.5137C24.3245 45.8342 23.8174 46.0428 23.2957 46.1543L25.7649 52.638C26.0207 53.3096 26.3904 53.6495 26.7734 53.6495C27.1201 53.6495 27.4773 53.3711 27.7727 52.8087L28.8859 50.6289C28.8859 50.6289 29.8954 50.998 31.1261 51.4106C31.3653 51.491 31.5805 51.529 31.7691 51.529C32.5494 51.529 32.8647 50.8731 32.472 49.8427L30.1217 43.6725Z" fill="#FFB800"></path> <path d="M9.59375 7.40005H35.4062C35.9151 7.40005 36.3281 6.98565 36.3281 6.47505C36.3281 5.96445 35.9151 5.55005 35.4062 5.55005H9.59375C9.08488 5.55005 8.67188 5.96445 8.67188 6.47505C8.67188 6.98565 9.08488 7.40005 9.59375 7.40005Z" fill="black"></path> <path d="M9.59375 11.1H35.4062C35.9151 11.1 36.3281 10.6856 36.3281 10.175C36.3281 9.6644 35.9151 9.25 35.4062 9.25H9.59375C9.08488 9.25 8.67188 9.6644 8.67188 10.175C8.67188 10.6856 9.08488 11.1 9.59375 11.1Z" fill="black"></path> <path d="M9.59375 14.8H35.4062C35.9151 14.8 36.3281 14.3856 36.3281 13.875C36.3281 13.3644 35.9151 12.95 35.4062 12.95H9.59375C9.08488 12.95 8.67188 13.3644 8.67188 13.875C8.67188 14.3856 9.08488 14.8 9.59375 14.8Z" fill="black"></path> <path d="M9.59375 18.5H35.4062C35.9151 18.5 36.3281 18.0856 36.3281 17.575C36.3281 17.0644 35.9151 16.65 35.4062 16.65H9.59375C9.08488 16.65 8.67188 17.0644 8.67188 17.575C8.67188 18.0856 9.08488 18.5 9.59375 18.5Z" fill="black"></path> <path d="M9.59375 22.2H35.4062C35.9151 22.2 36.3281 21.7856 36.3281 21.275C36.3281 20.7644 35.9151 20.35 35.4062 20.35H9.59375C9.08488 20.35 8.67188 20.7644 8.67188 21.275C8.67188 21.7856 9.08488 22.2 9.59375 22.2Z" fill="black"></path> <path d="M20.0239 45.3851L18.0949 50.4504L17.7557 49.7853L17.0136 48.3321L15.4842 48.8908C15.4791 48.8927 15.2021 48.994 14.7674 49.1475L16.5199 44.5466C15.8999 44.3902 15.3385 44.0952 14.8762 43.6803L12.5286 49.8436C12.1364 50.874 12.4512 51.5298 13.2316 51.5298C13.4201 51.5298 13.6353 51.4919 13.8746 51.4114C15.1048 50.9984 16.1147 50.6298 16.1147 50.6298L17.2279 52.8096C17.5229 53.3724 17.881 53.6504 18.2277 53.6504C18.6107 53.6504 18.9799 53.3109 19.2357 52.6389L21.7041 46.157C21.18 46.0464 20.672 45.8369 20.2097 45.5164C20.1488 45.4748 20.0857 45.429 20.0239 45.3851Z" fill="#FFB800"></path> <path d="M22.5 28.675C19.4449 28.675 16.9688 31.1591 16.9688 34.225C16.9688 37.29 19.4449 39.775 22.5 39.775C25.5551 39.775 28.0312 37.29 28.0312 34.225C28.0312 31.1591 25.5551 28.675 22.5 28.675ZM22.5 37.925C20.4668 37.925 18.8125 36.2651 18.8125 34.225C18.8125 32.185 20.4668 30.525 22.5 30.525C24.5332 30.525 26.1875 32.185 26.1875 34.225C26.1875 36.2651 24.5332 37.925 22.5 37.925Z" fill="#FFB800"></path> <path d="M32.1391 33.4817C32.276 33.0868 32.411 32.6941 32.5373 32.2973C32.8088 31.449 32.5281 30.6281 31.7883 30.1013C31.2135 29.6915 30.5461 29.3618 30.151 28.7522C29.7984 28.2078 29.6606 27.5539 29.4324 26.954C29.1596 26.2367 28.6562 25.8112 27.9362 25.6895C27.5417 25.6234 27.0471 25.6165 26.553 25.6419C25.3444 25.7039 24.6212 25.0004 23.6638 24.413C23.4006 24.2507 23.078 24.0786 22.7636 24.0578C22.3792 24.0329 22.0339 24.0601 21.6822 24.2257C21.1162 24.4926 20.67 24.9412 20.1335 25.2543C19.3776 25.6951 18.4409 25.6317 17.6052 25.6317C16.5608 25.6317 15.838 26.1349 15.5135 27.0863C15.4416 27.2986 15.372 27.5099 15.3015 27.7231C15.0033 28.6213 14.6423 29.1056 13.8583 29.6462C13.6407 29.7961 13.4236 29.9459 13.2093 30.1004C12.4713 30.6304 12.1906 31.4518 12.4593 32.2982C12.6543 32.9119 12.9157 33.5243 12.9447 34.1769C12.9747 34.8706 12.6718 35.5098 12.4626 36.1545C12.1902 37.0018 12.4667 37.8246 13.2015 38.356C13.6403 38.6738 14.1242 38.9397 14.5193 39.3143C15.1217 39.885 15.2886 40.7476 15.5591 41.5006C15.8551 42.3155 16.6009 42.8247 17.5057 42.8302C18.1505 42.8344 18.8069 42.7932 19.4379 42.9551C20.1376 43.1346 20.6723 43.5934 21.2563 43.9939C22.0418 44.5378 22.9544 44.535 23.7417 43.992C23.9348 43.8584 24.1247 43.7238 24.3165 43.5883C25.2222 42.9482 26.1077 42.8256 27.1877 42.8302L27.4942 42.8293C28.405 42.8219 29.1527 42.3016 29.4453 41.4705C29.6735 40.8151 29.792 40.1001 30.252 39.5562C30.6848 39.0447 31.2877 38.7274 31.8215 38.3375C32.5267 37.8228 32.8042 36.9963 32.5442 36.1813C32.2626 35.2878 31.8067 34.4308 32.1391 33.4817ZM22.4995 41.9085C18.2787 41.9085 14.8452 38.4652 14.8452 34.2328C14.8452 30 18.2787 26.5553 22.4995 26.5553C26.7198 26.5553 30.1533 29.9996 30.1533 34.2328C30.1533 38.4652 26.7198 41.9085 22.4995 41.9085Z" fill="#FFB800"></path> </g> <defs> <clipPath id="clip0_649_348"> <rect width="45" height="60" fill="white"></rect> </clipPath> </defs> </svg> 