<?xml version="1.0" encoding="UTF-8"?> <svg xmlns="http://www.w3.org/2000/svg" width="83" height="41" viewBox="0 0 83 41" fill="none"> <g clip-path="url(#clip0_649_338)"> <path d="M77.9001 20.2352C76.8991 19.8704 76.0801 19.1408 75.6251 18.1376L71.3481 9.2912C70.3471 7.1936 68.1631 5.8256 65.7971 5.8256H56.3331V4.0016C56.3331 2.0864 54.7861 0.627197 52.9661 0.627197H23.0271C22.2081 0.627197 21.5711 1.2656 21.5711 2.0864C21.5711 2.9072 22.2081 3.5456 23.0271 3.5456H52.8751C53.1481 3.5456 53.4211 3.8192 53.4211 4.0928V32.912H29.0331C28.3961 30.176 25.9391 28.0784 22.9361 28.0784C19.9331 28.0784 17.4761 30.176 16.8391 32.912H13.7451C13.4721 32.912 13.1991 32.6384 13.1991 32.3648V28.808C13.1991 27.9872 12.5621 27.3488 11.7431 27.3488C10.9241 27.3488 10.2871 27.9872 10.2871 28.808V32.3648C10.2871 34.28 11.8341 35.7392 13.6541 35.7392H16.9301C17.5671 38.4752 20.0241 40.5728 23.0271 40.5728C26.0301 40.5728 28.4871 38.4752 29.1241 35.7392H54.9681H61.0651C61.7021 38.4752 64.1591 40.5728 67.1621 40.5728C70.1651 40.5728 72.6221 38.4752 73.2591 35.7392H78.6281C80.8121 35.7392 82.6321 33.9152 82.6321 31.7264V26.7104C82.4501 23.792 80.6301 21.2384 77.9001 20.2352ZM23.0271 37.7456C21.1161 37.7456 19.6601 36.1952 19.6601 34.3712C19.6601 32.5472 21.2071 30.9968 23.0271 30.9968C24.9381 30.9968 26.3941 32.5472 26.3941 34.3712C26.3941 36.1952 24.9381 37.7456 23.0271 37.7456ZM67.0711 37.7456C65.1601 37.7456 63.7041 36.1952 63.7041 34.3712C63.7041 32.456 65.2511 30.9968 67.0711 30.9968C68.9821 30.9968 70.4381 32.5472 70.4381 34.3712C70.4381 36.1952 68.8911 37.7456 67.0711 37.7456ZM79.6291 31.7264C79.6291 32.3648 79.0831 32.912 78.4461 32.912H73.0771C72.4401 30.176 69.9831 28.0784 66.9801 28.0784C64.0681 28.0784 61.5201 30.176 60.8831 32.912H56.1511V20.144H69.2551C70.0741 20.144 70.7111 19.5056 70.7111 18.6848C70.7111 17.864 70.0741 17.2256 69.2551 17.2256H56.3331V8.5616H65.7971C67.0711 8.5616 68.2541 9.2912 68.8001 10.3856L73.0771 19.232C73.8961 20.8736 75.2611 22.0592 76.9901 22.6976C78.6281 23.2448 79.7201 24.7952 79.7201 26.528V31.7264H79.6291Z" fill="black"></path> <path d="M17.2031 10.0208H29.6701C30.4891 10.0208 31.1261 9.38242 31.1261 8.56162C31.1261 7.74082 30.4891 7.10242 29.6701 7.10242H17.2031C16.3841 7.10242 15.7471 7.74082 15.7471 8.56162C15.7471 9.38242 16.4751 10.0208 17.2031 10.0208Z" fill="#FFB800"></path> <path d="M9.55903 10.0208H12.653C13.472 10.0208 14.109 9.38242 14.109 8.56162C14.109 7.74082 13.472 7.10242 12.653 7.10242H9.55903C8.74003 7.10242 8.10303 7.74082 8.10303 8.56162C8.10303 9.38242 8.83103 10.0208 9.55903 10.0208Z" fill="#FFB800"></path> <path d="M17.2031 16.496H37.6781C38.4971 16.496 39.1341 15.8576 39.1341 15.0368C39.1341 14.216 38.4971 13.5776 37.6781 13.5776H17.2031C16.3841 13.5776 15.7471 14.216 15.7471 15.0368C15.8381 15.8576 16.4751 16.496 17.2031 16.496Z" fill="#FFB800"></path> <path d="M9.55903 16.496H12.653C13.472 16.496 14.109 15.8576 14.109 15.0368C14.109 14.216 13.472 13.5776 12.653 13.5776H9.55903C8.74003 13.5776 8.10303 14.216 8.10303 15.0368C8.19403 15.8576 8.83103 16.496 9.55903 16.496Z" fill="#FFB800"></path> <path d="M24.756 21.4207C24.756 20.5999 24.119 19.9615 23.3 19.9615H9.55903C8.74003 19.9615 8.10303 20.5999 8.10303 21.4207C8.10303 22.2415 8.74003 22.8799 9.55903 22.8799H23.3C24.119 22.8799 24.756 22.2415 24.756 21.4207Z" fill="#FFB800"></path> <path d="M5.00905 20.0529H2.00605C1.18705 20.0529 0.550049 20.6913 0.550049 21.5121C0.550049 22.3329 1.18705 22.9713 2.00605 22.9713H5.10005C5.91905 22.9713 6.55605 22.3329 6.55605 21.5121C6.46505 20.6913 5.82805 20.0529 5.00905 20.0529Z" fill="#FFB800"></path> </g> <defs> <clipPath id="clip0_649_338"> <rect width="83" height="41" fill="white"></rect> </clipPath> </defs> </svg> 