<?xml version="1.0" encoding="UTF-8"?> <svg xmlns="http://www.w3.org/2000/svg" width="51" height="59" viewBox="0 0 51 59" fill="none"> <g clip-path="url(#clip0_649_333)"> <path d="M29.3126 1.94118L30.141 2.86343C30.5317 3.29892 31.0039 3.60813 31.5198 3.77498C32.0326 3.94106 32.5977 3.96785 33.1758 3.84386L34.3911 3.58287C35.1196 3.4275 35.8352 3.42291 36.5238 3.5668C37.2163 3.71222 37.8696 4.00535 38.4738 4.44314C39.0757 4.87863 39.5571 5.40902 39.9102 6.02208C40.2626 6.63207 40.4799 7.314 40.5567 8.05258L40.6864 9.30853C40.7478 9.88102 40.9482 10.3984 41.263 10.8308C41.5785 11.2648 42.0192 11.6169 42.5566 11.8534L43.6936 12.3547C44.3791 12.657 44.9634 13.0741 45.4355 13.5961C45.9338 14.1946 46.2501 14.6982 46.4935 15.4467C46.7107 16.1616 46.8059 16.8183 46.7268 17.5652C46.6531 18.2617 46.4267 18.9398 46.0513 19.585L45.4263 20.6565C45.1323 21.1617 44.9841 21.7058 44.9841 22.2462C44.9841 22.7873 45.1323 23.3307 45.4263 23.8358L46.0489 24.9066C46.4251 25.5525 46.6516 26.2314 46.7253 26.9279C46.799 27.6244 46.7215 28.3346 46.4919 29.0418C46.2624 29.7505 45.9054 30.3713 45.4317 30.894C44.9611 31.4183 44.3761 31.8354 43.6905 32.1377L42.5566 32.6375C42.0184 32.874 41.5785 33.226 41.263 33.6592C40.9451 34.0963 40.744 34.6244 40.6841 35.2076L40.5927 36.0931L50.7459 48.8891C51.0775 49.3078 51.0061 49.9178 50.5862 50.2484C50.352 50.4329 50.058 50.4918 49.787 50.4359L39.921 48.3825L36.8401 57.8844C36.6766 58.3941 36.1284 58.6743 35.6171 58.5112C35.3131 58.414 35.0912 58.1821 34.9945 57.9028L29.007 42.8665C28.5825 43.2714 28.1088 43.5898 27.5944 43.8186C26.9472 44.1064 26.244 44.2534 25.5001 44.2534C24.7562 44.2534 24.0537 44.1064 23.4073 43.8186C22.8914 43.5898 22.4184 43.2706 21.9931 42.8665L16.0057 57.9028C15.9089 58.1821 15.6871 58.414 15.383 58.5112C14.8717 58.6743 14.3236 58.3941 14.1601 57.8844L11.0792 48.3825L1.21395 50.4382C0.942177 50.4918 0.648139 50.4329 0.413984 50.2484C-0.00596042 49.9178 -0.0773586 49.3078 0.254298 48.8891L10.4074 36.0931L10.3161 35.2091C10.2562 34.6251 10.055 34.0986 9.73721 33.6615C9.42167 33.2276 8.981 32.8755 8.44359 32.639L7.3066 32.1377C6.62486 31.8377 6.04216 31.4198 5.56771 30.8963C5.09402 30.3766 4.7378 29.7559 4.50671 29.0456C4.28945 28.3308 4.19425 27.6749 4.27332 26.9279C4.34703 26.2314 4.5735 25.5533 4.94892 24.9081L5.57385 23.8358C5.86788 23.3307 6.01606 22.7873 6.01606 22.2462C6.01606 21.7058 5.86788 21.1617 5.57385 20.6565L4.95122 19.5866C4.57581 18.9414 4.34856 18.2617 4.27486 17.5652C4.19962 16.8672 4.27716 16.1562 4.50825 15.4467C4.7378 14.7418 5.09479 14.1219 5.56847 13.5984C6.03909 13.0741 6.62409 12.657 7.30967 12.3547L8.44359 11.8557C8.98254 11.6184 9.42167 11.2671 9.73721 10.8331C10.055 10.3961 10.2562 9.86954 10.3161 9.28557L10.4435 8.05258C10.5203 7.314 10.7375 6.63207 11.0899 6.02208C11.4431 5.40902 11.9244 4.87863 12.5263 4.44314C13.1305 4.00535 13.7839 3.71222 14.4725 3.5668C15.2134 3.42674 15.869 3.42521 16.6091 3.58287L17.8244 3.84386C18.4017 3.96785 18.9675 3.94106 19.4796 3.77498C19.9947 3.60813 20.4677 3.29969 20.8592 2.86343L21.6876 1.94118C22.1874 1.38399 22.7639 0.959218 23.4057 0.673738C24.0529 0.385963 24.7562 0.239014 25.5001 0.239014C26.244 0.239014 26.9465 0.385963 27.5937 0.673738C28.2355 0.959218 28.8128 1.38476 29.3126 1.94118ZM19.2815 22.9901C18.8862 22.6281 18.8608 22.0135 19.224 21.6194C19.5871 21.2252 20.2036 21.1999 20.5989 21.562L23.9255 24.6249L30.3521 17.84C30.7198 17.4504 31.3363 17.4313 31.7271 17.7979C32.1179 18.1645 32.137 18.7791 31.7693 19.1687L24.6878 26.6447C24.3247 27.0389 23.7082 27.0641 23.3128 26.7021L19.2815 22.9901ZM11.8745 22.2462C11.8745 18.4952 13.4 15.0985 15.8652 12.6409C18.3303 10.1833 21.7375 8.66257 25.5001 8.66257C29.2627 8.66257 32.6698 10.1833 35.135 12.6409C37.6002 15.0985 39.1256 18.4952 39.1256 22.2462C39.1256 25.9965 37.6002 29.3939 35.135 31.8515C32.6698 34.309 29.2627 35.8298 25.5001 35.8298C21.7375 35.8298 18.3303 34.309 15.8652 31.8515C13.4 29.3939 11.8745 25.9965 11.8745 22.2462ZM17.244 14.0155C15.1312 16.1218 13.8246 19.0317 13.8246 22.2462C13.8246 25.4599 15.1312 28.3706 17.244 30.4769C19.3568 32.5831 22.2757 33.8858 25.5001 33.8858C28.7245 33.8858 31.6434 32.5831 33.7562 30.4769C35.8689 28.3706 37.1756 25.4599 37.1756 22.2462C37.1756 19.0317 35.8689 16.1218 33.7562 14.0155C31.6434 11.9092 28.7245 10.6066 25.5001 10.6066C22.2757 10.6066 19.3568 11.9092 17.244 14.0155ZM20.5252 41.3037C20.2097 41.0365 19.8566 40.8391 19.4804 40.7174C18.9675 40.5513 18.4017 40.5245 17.8244 40.6485L16.6129 40.9087C15.8813 41.0664 15.1635 41.071 14.4725 40.9256C13.7393 40.7572 13.1367 40.4916 12.5263 40.0492C11.9244 39.6137 11.4431 39.0818 11.0899 38.4711L11.0508 38.4022L3.44035 47.9937L11.5375 46.306C12.0312 46.2043 12.5164 46.4951 12.6638 46.965L15.1804 54.7273L20.5252 41.3037ZM39.9494 38.4029L39.9125 38.468C39.5671 39.0742 39.0826 39.6053 38.4738 40.0469C37.8696 40.4885 37.2155 40.7817 36.5261 40.9271C35.7853 41.0672 35.1304 41.0687 34.3911 40.911L33.1773 40.65C32.5992 40.526 32.0334 40.5528 31.5206 40.7189C31.1444 40.8406 30.7912 41.0381 30.4749 41.3044L35.8198 54.7273L38.3364 46.965C38.4838 46.4951 38.969 46.2043 39.4627 46.306L47.5598 47.9937L39.9494 38.4029ZM28.693 4.15383L27.8647 3.23157C27.5514 2.88333 27.1937 2.61775 26.8014 2.44325C26.4137 2.27105 25.9776 2.18303 25.5001 2.18303C25.0226 2.18303 24.5857 2.27105 24.198 2.44325C23.8057 2.61775 23.4487 2.8818 23.1355 3.23157L22.3071 4.15383C21.6791 4.85414 20.916 5.35085 20.0815 5.62103C19.2454 5.89196 18.3365 5.93865 17.4206 5.74195L16.2053 5.48097C15.7531 5.38453 15.317 5.37688 14.9055 5.45801C14.4272 5.57051 14.0687 5.72512 13.6687 6.01519C13.2849 6.29301 12.9839 6.62059 12.7728 6.98643C12.5601 7.35457 12.4265 7.78011 12.3782 8.25004L12.2507 9.48304C12.1548 10.416 11.83 11.2633 11.3141 11.972C10.7967 12.6838 10.0881 13.254 9.22821 13.6328L8.09428 14.1318C7.66359 14.3216 7.29969 14.5788 7.01409 14.8949C6.7262 15.2087 6.50663 15.5952 6.36 16.0468C6.21413 16.4953 6.16423 16.9369 6.20952 17.3601C6.25482 17.7857 6.39761 18.2074 6.63407 18.6145L7.25669 19.6845C7.72884 20.4958 7.96607 21.3714 7.96607 22.2462C7.96607 23.1218 7.72884 23.9966 7.25669 24.8078L6.63177 25.8801C6.39531 26.2873 6.25328 26.7082 6.20799 27.133C6.16423 27.5455 6.21029 27.9741 6.34541 28.4081C6.50509 28.8673 6.68167 29.2332 7.01179 29.5982C7.29355 29.9128 7.65668 30.17 8.09121 30.3605L9.22821 30.8618C10.0873 31.2399 10.7959 31.8117 11.3141 32.5227C11.83 33.2314 12.1548 34.0787 12.2507 35.0116L12.3782 36.2423C12.4265 36.713 12.5594 37.1378 12.7728 37.5067C12.9831 37.8718 13.2849 38.1994 13.6687 38.4772C14.0434 38.7481 14.4372 38.9318 14.8418 39.0206C15.3147 39.1147 15.7285 39.1132 16.2014 39.0114L17.4206 38.7504C18.3365 38.5537 19.2454 38.6004 20.0823 38.8713C20.9168 39.1423 21.6791 39.6382 22.3071 40.3385L23.1355 41.2616C23.448 41.6098 23.8065 41.8746 24.1996 42.0491C24.5865 42.2213 25.0233 42.3093 25.5001 42.3093C25.9776 42.3093 26.4144 42.2213 26.8021 42.0491C27.1937 41.8746 27.5522 41.6106 27.8647 41.2616L28.6562 40.3806C29.2627 39.688 30.0396 39.1576 30.9187 38.8729C31.7555 38.6019 32.6637 38.5552 33.5811 38.7519L34.7949 39.0129C35.2463 39.1094 35.6824 39.117 36.0924 39.0359C36.5676 38.9264 36.9345 38.7657 37.3315 38.4787C37.7099 38.2078 38.0094 37.8787 38.2251 37.5052C38.4385 37.1432 38.5706 36.7268 38.6197 36.2683L38.7494 35.0101C38.8454 34.0779 39.1702 33.2291 39.6861 32.5204C40.2035 31.8094 40.9121 31.2384 41.772 30.8603L42.9059 30.3605C43.3366 30.1707 43.7005 29.9136 43.9861 29.5975C44.274 29.2844 44.4935 28.8972 44.6402 28.4456C44.7853 27.9994 44.8359 27.5578 44.7906 27.133C44.7453 26.7075 44.6033 26.2858 44.3661 25.8786L43.7435 24.8078C43.2713 23.9966 43.0341 23.1218 43.0341 22.2462C43.0341 21.3714 43.2713 20.4958 43.7435 19.6845L44.3684 18.613C44.6049 18.2058 44.7469 17.7849 44.7922 17.3601C44.8359 16.9476 44.7899 16.5182 44.6548 16.0843C44.5028 15.6472 44.34 15.2952 44.0329 14.9408C43.6736 14.5712 43.388 14.3431 42.909 14.1318L41.772 13.6305C40.9129 13.2517 40.2043 12.6807 39.6861 11.9697C39.1763 11.2702 38.8523 10.4328 38.7533 9.50982L38.622 8.25004C38.5736 7.78011 38.44 7.35457 38.2274 6.98643C38.0163 6.62059 37.7153 6.29301 37.3315 6.01519C36.9484 5.73736 36.5415 5.55291 36.1238 5.46489C35.7047 5.37688 35.2578 5.38224 34.7949 5.48097L33.5796 5.74195C32.6622 5.93865 31.7547 5.89196 30.9179 5.62103C30.0826 5.35009 29.3203 4.85337 28.693 4.15383Z" fill="black"></path> <path d="M19.2815 22.9901C18.8861 22.6281 18.8608 22.0135 19.2239 21.6194C19.5871 21.2252 20.2035 21.2 20.5989 21.562L23.9255 24.625L30.3521 17.84C30.7198 17.4505 31.3363 17.4313 31.7271 17.7979C32.1178 18.1645 32.137 18.7791 31.7693 19.1687L24.6878 26.6447C24.3247 27.0389 23.7082 27.0642 23.3128 26.7021L19.2815 22.9901ZM11.8745 22.2462C11.8745 18.4952 13.4 15.0985 15.8651 12.6409C18.3303 10.1834 21.7374 8.6626 25.5001 8.6626C29.2627 8.6626 32.6698 10.1834 35.135 12.6409C37.6001 15.0985 39.1256 18.4952 39.1256 22.2462C39.1256 25.9965 37.6001 29.3939 35.135 31.8515C32.6698 34.3091 29.2627 35.8298 25.5001 35.8298C21.7374 35.8298 18.3303 34.3091 15.8651 31.8515C13.4 29.3939 11.8745 25.9965 11.8745 22.2462ZM17.244 14.0155C15.1312 16.1218 13.8245 19.0317 13.8245 22.2462C13.8245 25.46 15.1312 28.3706 17.244 30.4769C19.3567 32.5832 22.2756 33.8858 25.5001 33.8858C28.7245 33.8858 31.6434 32.5832 33.7561 30.4769C35.8689 28.3706 37.1756 25.46 37.1756 22.2462C37.1756 19.0317 35.8689 16.1218 33.7561 14.0155C31.6434 11.9093 28.7245 10.6066 25.5001 10.6066C22.2756 10.6066 19.3567 11.9093 17.244 14.0155Z" fill="#FFB800" stroke="#FFB800"></path> </g> <defs> <clipPath id="clip0_649_333"> <rect width="51" height="59" fill="white"></rect> </clipPath> </defs> </svg> 