<?xml version="1.0" encoding="UTF-8"?> <svg xmlns="http://www.w3.org/2000/svg" width="125" height="22" viewBox="0 0 125 22" fill="none"> <path d="M10.5769 0.846191L12.9516 8.15466H20.6362L14.4192 12.6715L16.7939 19.98L10.5769 15.4631L4.35996 19.98L6.73463 12.6715L0.517672 8.15466H8.20226L10.5769 0.846191Z" fill="#FFB800"></path> <path d="M36.5383 0.846191L38.913 8.15466H46.5976L40.3806 12.6715L42.7553 19.98L36.5383 15.4631L30.3214 19.98L32.6961 12.6715L26.4791 8.15466H34.1637L36.5383 0.846191Z" fill="#FFB800"></path> <path d="M62.5 0.846191L64.8747 8.15466H72.5593L66.3423 12.6715L68.717 19.98L62.5 15.4631L56.2831 19.98L58.6577 12.6715L52.4408 8.15466H60.1254L62.5 0.846191Z" fill="#FFB800"></path> <path d="M88.4614 2.46423L90.3606 8.30917L90.4728 8.65466H90.8361H96.9819L92.0098 12.267L91.716 12.4806L91.8282 12.8261L93.7273 18.671L88.7553 15.0586L88.4614 14.8451L88.1676 15.0586L83.1955 18.671L85.0947 12.8261L85.2069 12.4806L84.913 12.267L79.941 8.65466H86.0868H86.45L86.5623 8.30917L88.4614 2.46423Z" stroke="#FFB800"></path> <path d="M114.423 2.46423L116.322 8.30917L116.434 8.65466H116.798H122.943L117.971 12.267L117.677 12.4806L117.79 12.8261L119.689 18.671L114.717 15.0586L114.423 14.8451L114.129 15.0586L109.157 18.671L111.056 12.8261L111.168 12.4806L110.874 12.267L105.902 8.65466H112.048H112.411L112.524 8.30917L114.423 2.46423Z" stroke="#FFB800"></path> </svg> 