<?xml version="1.0" encoding="UTF-8"?> <svg xmlns="http://www.w3.org/2000/svg" width="125" height="22" viewBox="0 0 125 22" fill="none"> <path d="M10.5769 0.846191L12.9516 8.15466H20.6362L14.4192 12.6715L16.7939 19.98L10.5769 15.4631L4.35996 19.98L6.73463 12.6715L0.517672 8.15466H8.20226L10.5769 0.846191Z" fill="#FFB800"></path> <path d="M36.5383 0.846191L38.913 8.15466H46.5976L40.3806 12.6715L42.7553 19.98L36.5383 15.4631L30.3214 19.98L32.6961 12.6715L26.4791 8.15466H34.1637L36.5383 0.846191Z" fill="#FFB800"></path> <path d="M62.5 0.846191L64.8747 8.15466H72.5593L66.3423 12.6715L68.717 19.98L62.5 15.4631L56.2831 19.98L58.6577 12.6715L52.4408 8.15466H60.1254L62.5 0.846191Z" fill="#FFB800"></path> <path d="M88.4614 0.846191L90.8361 8.15466H98.5207L92.3037 12.6715L94.6784 19.98L88.4614 15.4631L82.2445 19.98L84.6192 12.6715L78.4022 8.15466H86.0868L88.4614 0.846191Z" fill="#FFB800"></path> <path d="M114.423 0.846191L116.798 8.15466H124.482L118.265 12.6715L120.64 19.98L114.423 15.4631L108.206 19.98L110.581 12.6715L104.364 8.15466H112.048L114.423 0.846191Z" fill="#FFB800"></path> </svg> 