<?xml version="1.0" encoding="UTF-8"?> <svg xmlns="http://www.w3.org/2000/svg" width="25" height="30" viewBox="0 0 25 30" fill="none"> <path d="M12.4999 0.833496C6.08325 0.833496 0.833252 5.9335 0.833252 12.1668C0.833252 19.8168 11.0416 28.4585 11.4791 28.8835C11.7708 29.0252 12.2083 29.1668 12.4999 29.1668C12.7916 29.1668 13.2291 29.0252 13.5208 28.8835C13.9583 28.4585 24.1666 19.8168 24.1666 12.1668C24.1666 5.9335 18.9166 0.833496 12.4999 0.833496ZM12.4999 25.9085C9.43742 23.0752 3.74992 16.9835 3.74992 12.1668C3.74992 7.49183 7.68742 3.66683 12.4999 3.66683C17.3124 3.66683 21.2499 7.49183 21.2499 12.1668C21.2499 16.8418 15.5624 23.0752 12.4999 25.9085ZM12.4999 6.50016C9.29159 6.50016 6.66659 9.05016 6.66659 12.1668C6.66659 15.2835 9.29159 17.8335 12.4999 17.8335C15.7083 17.8335 18.3333 15.2835 18.3333 12.1668C18.3333 9.05016 15.7083 6.50016 12.4999 6.50016ZM12.4999 15.0002C10.8958 15.0002 9.58325 13.7252 9.58325 12.1668C9.58325 10.6085 10.8958 9.3335 12.4999 9.3335C14.1041 9.3335 15.4166 10.6085 15.4166 12.1668C15.4166 13.7252 14.1041 15.0002 12.4999 15.0002Z" fill="black" stroke="#FFB800"></path> </svg> 