<?xml version="1.0" encoding="UTF-8"?> <svg xmlns="http://www.w3.org/2000/svg" width="25" height="26" viewBox="0 0 25 26" fill="none"> <path d="M23.7963 17.1888L17.9075 14.6325L17.8913 14.6252C17.5856 14.4985 17.2521 14.4477 16.921 14.4773C16.5899 14.5069 16.2716 14.616 15.995 14.7947C15.9624 14.8156 15.9311 14.8382 15.9013 14.8625L12.8588 17.3752C10.9313 16.4683 8.94126 14.555 8.00501 12.7119L10.6025 9.7197C10.6275 9.68942 10.6513 9.65915 10.6738 9.62645C10.8543 9.3592 10.9638 9.05286 10.9926 8.73469C11.0214 8.41652 10.9686 8.09638 10.8388 7.80278V7.78825L8.19251 2.07384C8.02094 1.69029 7.72592 1.37078 7.3515 1.16302C6.97707 0.955248 6.54333 0.87036 6.11501 0.921024C4.42122 1.13694 2.86649 1.94278 1.74118 3.18801C0.61587 4.43325 -0.00305116 6.03274 1.13108e-05 7.68774C1.13108e-05 17.3026 8.07501 25.1252 18 25.1252C19.7084 25.1282 21.3595 24.5286 22.6449 23.4385C23.9303 22.3483 24.7621 20.8422 24.985 19.2013C25.0374 18.7865 24.95 18.3665 24.7357 18.0038C24.5215 17.6411 24.1919 17.3552 23.7963 17.1888ZM18 23.1877C13.758 23.1833 9.691 21.5488 6.69142 18.6429C3.69184 15.7371 2.00464 11.7972 2.00001 7.68774C1.99531 6.50525 2.43508 5.36153 3.23718 4.47017C4.03929 3.57881 5.14889 3.00077 6.35876 2.84399C6.35827 2.84883 6.35827 2.85369 6.35876 2.85852L8.98376 8.54993L6.40001 11.5458C6.37379 11.575 6.34996 11.6062 6.32876 11.639C6.14066 11.9187 6.03031 12.2406 6.00841 12.5737C5.98651 12.9068 6.0538 13.2397 6.20376 13.5402C7.33626 15.7841 9.67001 18.0279 12.0113 19.1238C12.3237 19.2678 12.6694 19.3307 13.0144 19.3065C13.3595 19.2823 13.6922 19.1718 13.98 18.9858C14.0121 18.9648 14.043 18.9422 14.0725 18.918L17.1113 16.4065L22.9863 18.9555H23C22.8402 20.1292 22.2444 21.2063 21.3241 21.9853C20.4038 22.7643 19.2221 23.1917 18 23.1877Z" fill="black"></path> </svg> 