<?xml version="1.0" encoding="UTF-8"?> <svg xmlns="http://www.w3.org/2000/svg" width="126" height="97" viewBox="0 0 126 97" fill="none"> <g clip-path="url(#clip0_628_313)"> <path d="M27.718 52.961C27.3592 53.2808 27.1786 53.5032 25.2631 56.0042C21.7352 60.6251 19.8477 62.6657 15.1266 66.953C12.2835 69.528 11.9892 69.8195 11.8623 70.1423C11.8179 70.238 11.6705 70.4268 11.5261 70.557C11.3817 70.6872 11.2871 70.8432 11.3152 70.9072C11.3889 71.075 12.2571 71.0842 13.7237 70.9258C17.945 70.4812 19.9751 70.2943 21.4457 70.2104C24.6195 70.0261 28.0868 70.0942 32.1772 70.4222C35.5985 70.6916 36.4678 70.6814 36.5464 70.3798C36.6846 69.8423 34.5403 68.8304 31.985 68.2375C28.3268 67.3858 24.1412 67.2998 19.5814 67.979C18.9595 68.0712 18.3677 68.1883 18.263 68.2343C18.1584 68.2803 18.079 68.2962 18.0926 68.2616C18.1062 68.227 19.2951 67.7425 20.7313 67.1874C27.9357 64.4209 35.2107 61.3564 51.8434 54.1116C66.0148 47.9296 78.0611 42.5484 87.9581 37.9785C104.429 30.3661 114.058 25.5803 113.951 25.0744C113.862 24.675 107.602 27.0552 95.2137 32.2052C88.3421 35.0734 65.8836 44.8791 55.6699 49.4929C39.2528 56.9004 26.7818 62.7353 20.2717 66.0547C19.2618 66.5749 18.4184 66.9933 18.3953 66.9844C18.3757 66.9835 18.5362 66.8462 18.7449 66.6877C20.0664 65.6968 22.0885 63.7877 23.4008 62.2956C25.4363 59.9802 27.1061 57.2916 27.9324 55.0215C28.3038 54.0097 28.49 53.0793 28.3741 52.8156C28.3285 52.7117 28.0767 52.6412 28.0102 52.7086C28.0022 52.7121 27.8704 52.8273 27.718 52.961Z" fill="#FFB800"></path> </g> <defs> <clipPath id="clip0_628_313"> <rect width="112.508" height="55.8607" fill="white" transform="translate(0 45.276) rotate(-23.7298)"></rect> </clipPath> </defs> </svg> 